<svg xmlns="http://www.w3.org/2000/svg">
    <symbol id="loan-interest" viewBox="0 0 42 42">
        <rect width="42" height="42" fill="#F4E2EC" rx="21"/>
        <path fill="#fff" d="M21 33c6.627 0 12-5.373 12-12S27.627 9 21 9 9 14.373 9 21s5.373 12 12 12z"/>
        <path fill="#EE7DC1" d="M29.896 35.207a5.122 5.122 0 1 0 0-10.244 5.122 5.122 0 0 0 0 10.244z"/>
        <path stroke="#fff" stroke-linecap="round" stroke-linejoin="round" stroke-width=".9"
              d="M29.895 26.894v3.698l1.965 1.965"/>
        <path stroke="#EE7DC1" stroke-linecap="round" stroke-linejoin="round" stroke-width="1.5"
              d="M17.854 19.588a1.734 1.734 0 1 0 0-3.468 1.734 1.734 0 0 0 0 3.468zm6.291 6.292a1.734 1.734 0 1 0 0-3.469 1.734 1.734 0 0 0 0 3.468zm1.183-9.544l-8.991 8.992"/>
    </symbol>
    <symbol id="events" viewBox="0 0 42 42">
        <rect width="42" height="42" fill="#DFEDF9" rx="21"/>
        <path fill="#127FE5"
              d="M11.732 29.748h18.537c.715 0 1.295-.58 1.295-1.295V13.547c0-.716-.58-1.296-1.296-1.296H11.732c-.715 0-1.295.58-1.295 1.296v14.906c0 .716.58 1.296 1.296 1.296z"/>
        <path fill="#349DFF"
              d="M21.589 20.486l9.492 7.581c.698.558.304 1.682-.589 1.682H11.508c-.893 0-1.287-1.124-.59-1.681l9.493-7.582a.944.944 0 0 1 1.178 0z"
              opacity=".7"/>
        <path fill="#52ACFF"
              d="M21.877 23.37l9.34-8.988c.821-.79.262-2.175-.876-2.175H11.66c-1.139 0-1.697 1.386-.877 2.175l9.341 8.987c.49.471 1.264.471 1.753 0z"/>
    </symbol>
    <symbol id="financial-income" viewBox="0 0 42 42">
        <rect width="42" height="42" fill="#EFE7FF" rx="21"/>
        <path fill="#FFB2A2" d="M18.328 17.99a3.903 3.903 0 0 0-3.903-3.903v7.806a3.903 3.903 0 0 0 3.903-3.903z"/>
        <path fill="#FF5018"
              d="M14.162 22.12h-5.25a.886.886 0 0 0-.885.886v2.225c0 .49.396.886.885.886h5.25c.49 0 .886-.396.886-.886v-2.225a.886.886 0 0 0-.886-.885z"/>
        <path fill="#FFB2A2" d="M26.528 16.674h-9.66a7.445 7.445 0 0 0 0 14.89h9.66a7.445 7.445 0 0 0 0-14.89z"/>
        <path fill="#FF5018" d="M12.776 22.474a.951.951 0 1 0 0-1.902.951.951 0 0 0 0 1.902z"/>
        <path fill="#D17D6B"
              d="M26.483 18.026h-8.46a.749.749 0 0 0-.75.748v.179a.75.75 0 0 0 .75.748h8.46a.749.749 0 0 0 .749-.748v-.178a.749.749 0 0 0-.749-.75z"/>
        <path fill="#FFB800" stroke="#D3A225" d="M27.5 12.5a5 5 0 1 1-10 0 5 5 0 0 1 10 0z"/>
        <path fill="#FFB2A2"
              d="M28.649 28.883h-1.683c-.566 0-1.025.459-1.025 1.025v2.197c0 .566.46 1.025 1.026 1.025h1.682c.566 0 1.025-.459 1.025-1.025v-2.197c0-.566-.459-1.025-1.025-1.025zm-11.431 0h-1.682c-.567 0-1.026.459-1.026 1.025v2.197c0 .566.46 1.025 1.026 1.025h1.682c.566 0 1.025-.459 1.025-1.025v-2.197c0-.566-.459-1.025-1.025-1.025z"/>
    </symbol>
    <symbol id="medical-health" viewBox="0 0 42 42">
        <rect width="42" height="42" fill="#FFCBBF" rx="21"/>
        <path fill="#FF5B5B"
              d="M15.868 23.167c3.052 0 5.527-2.708 5.527-6.048s-2.475-6.047-5.527-6.047c-3.053 0-5.528 2.707-5.528 6.047s2.475 6.048 5.528 6.048z"/>
        <path fill="#FF5B5B"
              d="M26.132 23.167c3.053 0 5.528-2.708 5.528-6.048s-2.475-6.047-5.528-6.047c-3.052 0-5.527 2.707-5.527 6.047s2.475 6.048 5.527 6.048z"/>
        <path fill="#FF5B5B" d="M21 32.929S9.238 25.647 10.425 16.067h21.15C32.763 25.647 21 32.929 21 32.929z"/>
        <path stroke="#fff" stroke-linecap="round" stroke-linejoin="round" stroke-width="1.13"
              d="M8.568 19.012h4.667l1.473 3.5 1.813-7.97 1.166 11.74 2.28-8.957 1.15 1.687h7.748"/>
    </symbol>
    <symbol id="fashion" viewBox="0 0 42 42">
        <rect width="42" height="42" fill="#DFEDF9" rx="21"/>
        <path fill="#F383C0"
              d="M27.915 15.822h-13.83c-.512 0-.937.28-.974.641l-1.428 13.752c-.041.4.407.743.975.743h16.684c.568 0 1.016-.342.975-.743l-1.428-13.752c-.037-.361-.462-.641-.974-.641z"/>
        <path stroke="#010101" stroke-linecap="round" stroke-miterlimit="10" stroke-width="1.8"
              d="M16.795 18.575l-.052-2.753c-.245-2.567 1.803-4.78 4.257-4.78 2.454 0 4.502 2.213 4.257 4.78v2.586"/>
    </symbol>
    <symbol id="loan-repayment" viewBox="0 0 42 42">
        <rect width="42" height="42" fill="#F4E2EC" rx="21"/>
        <path fill="#FFA800"
              d="M31.886 29.638c.016-.1.037-.199.037-.3 0-.101-.02-.2-.037-.3V13.684H10.077v15.954h.037c.373 2.368 5.097 4.241 10.886 4.241 5.789 0 10.513-1.874 10.886-4.241z"/>
        <mask id="a" width="22" height="21" x="10" y="13" maskUnits="userSpaceOnUse" style="mask-type:luminance">
            <path fill="#fff"
                  d="M31.886 29.638c.016-.1.037-.199.037-.3 0-.101-.02-.2-.037-.3V13.684H10.077v15.954h.037c.373 2.368 5.097 4.241 10.886 4.241 5.789 0 10.513-1.874 10.886-4.241z"/>
        </mask>
        <g stroke="#FF8039" stroke-linecap="round" stroke-miterlimit="10" stroke-width="1.2" mask="url(#a)">
            <path d="M32.677 16.473c0 2.838-5.228 5.14-11.677 5.14S9.323 19.31 9.323 16.472"/>
            <path d="M32.677 20.846c0 2.838-5.228 5.139-11.677 5.139s-11.677-2.3-11.677-5.139"/>
            <path d="M32.677 25.039c0 2.838-5.228 5.138-11.677 5.138s-11.677-2.3-11.677-5.138"/>
        </g>
        <path fill="#FFD541"
              d="M21 18.225c6.033 0 10.923-2.033 10.923-4.542 0-2.508-4.89-4.541-10.923-4.541s-10.923 2.033-10.923 4.542c0 2.508 4.89 4.541 10.923 4.541z"/>
        <path stroke="#fff" stroke-linecap="round" stroke-linejoin="round" stroke-width="1.05"
              d="M22.465 11.752l-6.041 3.209c.595-1.225 1.19-2.45 1.787-3.675m8.509.932l-6.041 3.209c.595-1.225 1.19-2.45 1.787-3.675m-6.948 1.174l1.73.19m6.65.728l2.514.19"/>
    </symbol>
    <symbol id="online" viewBox="0 0 42 42">
        <rect width="42" height="42" fill="#DFEDF9" rx="21"/>
        <path fill="#FDFDFF"
              d="M23.556 10.197H12.98c-.998 0-1.808.81-1.808 1.808v17.99c0 .998.81 1.808 1.808 1.808h10.576c.998 0 1.808-.81 1.808-1.808v-17.99c0-.999-.81-1.808-1.808-1.808z"/>
        <path fill="#6484A1"
              d="M23.556 10.947c.583 0 1.057.474 1.057 1.058v17.99c0 .584-.474 1.058-1.057 1.058H12.98a1.059 1.059 0 0 1-1.058-1.058v-17.99c0-.584.475-1.058 1.058-1.058h10.576zm0-1.5H12.98a2.558 2.558 0 0 0-2.558 2.558v17.99a2.558 2.558 0 0 0 2.558 2.558h10.576a2.558 2.558 0 0 0 2.557-2.557V12.005a2.558 2.558 0 0 0-2.557-2.558z"/>
        <path fill="#0085FF" d="M27.124 28.641a6.822 6.822 0 1 0 0-13.643 6.822 6.822 0 0 0 0 13.643z"/>
        <path fill="#0085FF" d="M27.13 19.887l-1.38 4.052-1.38-4.052"/>
        <path stroke="#fff" stroke-linecap="round" stroke-linejoin="round" stroke-width="1.05"
              d="M27.13 19.887l-1.38 4.052-1.38-4.052"/>
        <path fill="#0085FF" d="M29.89 19.887l-1.38 4.052-1.38-4.052"/>
        <path stroke="#fff" stroke-linecap="round" stroke-linejoin="round" stroke-width="1.05"
              d="M29.89 19.887l-1.38 4.052-1.38-4.052m-3.237 2.026h1.123m4.312 0h1.123"/>
        <path fill="#575FA0" d="M20.094 11.465h-3.652a.586.586 0 1 0 0 1.172h3.652a.586.586 0 1 0 0-1.172z"/>
        <path fill="#6484A1"
              d="M20.094 11.465h-3.652a.588.588 0 0 0-.586.587c0 .322.263.586.586.586h3.652a.588.588 0 0 0 .586-.586.588.588 0 0 0-.586-.587z"/>
    </symbol>
    <symbol id="loan" viewBox="0 0 42 42">
        <rect width="42" height="42" fill="#EFE7FF" rx="21"/>
        <g clip-path="url(#a)">
            <path fill="#FFB762"
                  d="M30.011 25.018c-.557-.248-2.863-1.2-5.661-.402a8.042 8.042 0 0 0-4.681 3.596l-8.927-3.345c-.696-.23-1.407.051-1.652.559-.256.533.112 1.086.138 1.123 1.02 1.07 4.834 4.81 11.095 5.527 4.476.513 7.978-.774 9.524-1.452l.164-5.606z"/>
            <path fill="#755BFF" d="M20.8 24.407A7.703 7.703 0 1 0 20.8 9a7.703 7.703 0 0 0 0 15.407z"/>
            <path fill="#755BFF" d="M20.805 14.521l-1.558 4.576-1.558-4.576"/>
            <path stroke="#fff" stroke-linecap="round" stroke-linejoin="round" stroke-width="1.05"
                  d="M20.805 14.521l-1.558 4.576-1.558-4.576"/>
            <path fill="#755BFF" d="M23.922 14.521l-1.558 4.576-1.559-4.576"/>
            <path stroke="#fff" stroke-linecap="round" stroke-linejoin="round" stroke-width="1.05"
                  d="M23.922 14.521l-1.558 4.576-1.559-4.576M17.15 16.81h1.268m4.87 0h1.268"/>
            <path fill="#FFB762" d="M24.856 24.91h-6.265a1.586 1.586 0 1 0 0 3.173h6.265a1.586 1.586 0 1 0 0-3.173z"/>
            <path stroke="#EFE7FF" stroke-linecap="round" stroke-linejoin="round" stroke-width=".75"
                  d="M23.165 28.444l-4.574-.36a1.591 1.591 0 0 1-1.586-1.587c0-.873.714-1.587 1.586-1.587h6.265"/>
            <path fill="#FFB762"
                  d="M29.835 30.547l.176-5.84c-.564-.254-3.097-1.32-6.073-.42a8.068 8.068 0 0 0-3.801 2.479"/>
            <path fill="#B14D15"
                  d="M32.965 24.007h-3.97a.493.493 0 0 0-.492.493v6.484c0 .272.22.493.492.493h3.97c.272 0 .492-.22.492-.493V24.5a.493.493 0 0 0-.492-.493z"/>
        </g>
        <defs>
            <clipPath id="a">
                <path fill="#fff" d="M0 0h24.46v23.19H0z" transform="translate(9 9)"/>
            </clipPath>
        </defs>
    </symbol>
    <symbol id="other-income" viewBox="0 0 42 42">
        <rect width="42" height="42" fill="#EFE7FF" rx="21"/>
        <path fill="#96959B"
              d="M11.836 10.001H23.32c.096 0 .173.078.173.174v1.363H11.662v-1.363c0-.096.078-.174.174-.174z"/>
        <path fill="#9992B4" d="M10.988 11.014h13.18c.395 0 .715.32.715.713V32h-14.61V11.728c0-.394.32-.714.715-.714z"/>
        <path fill="#C4DBFF"
              d="M23.494 12.697H11.588v1.788h11.906v-1.788zm0 2.793H11.588v1.79h11.906v-1.79zm0 2.78H11.588v1.788h11.906V18.27zm0 2.778H11.588v1.789h11.906v-1.789zm0 2.779H11.588v1.788h11.906v-1.788zm0 2.778H11.588v1.789h11.906v-1.788z"/>
        <path fill="#755BFF" d="M27.124 28.641a6.822 6.822 0 1 0 0-13.643 6.822 6.822 0 0 0 0 13.643z"/>
        <path fill="#755BFF" d="M27.13 19.887l-1.38 4.052-1.38-4.052"/>
        <path stroke="#fff" stroke-linecap="round" stroke-linejoin="round" stroke-width="1.05"
              d="M27.13 19.887l-1.38 4.052-1.38-4.052"/>
        <path fill="#755BFF" d="M29.89 19.887l-1.38 4.052-1.38-4.052"/>
        <path stroke="#fff" stroke-linecap="round" stroke-linejoin="round" stroke-width="1.05"
              d="M29.89 19.887l-1.38 4.052-1.38-4.052m-3.237 2.026h1.123m4.312 0h1.123"/>
    </symbol>
    <symbol id="parenting" viewBox="0 0 42 42">
        <rect width="42" height="42" fill="#FFCBBF" rx="21"/>
        <path fill="#fff"
              d="M30.466 25.583a4.533 4.533 0 1 0 0-9.067 4.533 4.533 0 0 0 0 9.067zm-18.932 0a4.533 4.533 0 1 0 0-9.067 4.533 4.533 0 0 0 0 9.067z"/>
        <path fill="#fff"
              d="M21.101 31.87c5.976 0 10.82-4.845 10.82-10.82 0-5.976-4.844-10.82-10.82-10.82s-10.82 4.844-10.82 10.82c0 5.975 4.844 10.82 10.82 10.82z"/>
        <path fill="#FFA700"
              d="M25.224 26.446c-.495 1.76-2.48 2.765-4.18 2.77-1.688.006-3.759-.97-4.226-2.794-.222-.865-.21-2.407.967-3.24.927-.657 2.249-.641 3.304.062 1.217-.68 2.638-.553 3.497.251 1.138 1.067.69 2.767.638 2.951z"/>
        <path fill="#644C1C"
              d="M17.056 21.755a1.138 1.138 0 1 0 0-2.276 1.138 1.138 0 0 0 0 2.276zm7.678 0a1.138 1.138 0 1 0 0-2.276 1.138 1.138 0 0 0 0 2.276z"/>
        <path stroke="#675F4F" stroke-linecap="round" stroke-miterlimit="10"
              d="M17.19 8.12c-1.53.22-2.744 1.301-3.034 2.675-.364 1.722.91 3.012 1.082 3.18 1.087 1.065 2.465 1.047 3.026 1.041 1.27-.014 3.102-.528 3.234-1.457.081-.57-.47-1.338-1.105-1.37-.558-.027-1.12.518-1.181 1.043-.112.969 1.43 2.286 2.914 2.123.096-.01 1.369-.17 1.81-1.206.397-.935-.046-2.208-1.188-2.92"/>
        <path stroke="#D79414" stroke-miterlimit="10" stroke-width=".79"
              d="M21.03 30.329a2.008 2.008 0 1 0 0-4.016 2.008 2.008 0 0 0 0 4.016z"/>
        <path fill="#FFDFA2" d="M21.101 28.62a2.258 2.258 0 1 0 0-4.516 2.258 2.258 0 0 0 0 4.516z"/>
    </symbol>
    <symbol id="food" viewBox="0 0 42 42">
        <rect width="42" height="42" fill="#D6F5E4" rx="21"/>
        <path fill="#069751"
              d="M15.95 19.572a1.37 1.37 0 0 0-1.37 1.368v11.72a1.369 1.369 0 1 0 2.738 0V20.94c0-.756-.613-1.368-1.369-1.368z"/>
        <path fill="#069751"
              d="M15.95 21.394c2.3 0 4.164-2.666 4.164-5.955 0-3.29-1.865-5.955-4.165-5.955s-4.165 2.666-4.165 5.955 1.865 5.955 4.165 5.955z"/>
        <path fill="#069751"
              d="M15.95 21.394c2.3 0 4.164-2.5 4.164-5.586 0-3.086-1.865-5.587-4.165-5.587s-4.165 2.501-4.165 5.587c0 3.085 1.865 5.586 4.165 5.586z"/>
        <path fill="#12771C"
              d="M26 19.572c-.755 0-1.368.613-1.368 1.368v11.72a1.369 1.369 0 1 0 2.737 0V20.94c0-.756-.612-1.368-1.368-1.368z"/>
        <path fill="#12771C"
              d="M26.09 21.394h-.18a4.137 4.137 0 0 1-4.124-4.125l.417-7.785h7.596l.417 7.785a4.137 4.137 0 0 1-4.125 4.125z"/>
        <path fill="#D6F5E4"
              d="M28.113 8.572a.601.601 0 0 0-1.203 0V16.4a.601.601 0 1 0 1.203 0V8.572zm-3.623-.601a.601.601 0 0 0-.601.601V16.4a.601.601 0 0 0 1.203 0V8.572a.601.601 0 0 0-.602-.601z"/>
        <path fill="#069751"
              d="M15.95 21.394c2.3 0 4.164-2.666 4.164-5.955 0-3.29-1.865-5.955-4.165-5.955s-4.165 2.666-4.165 5.955 1.865 5.955 4.165 5.955z"/>
    </symbol>
    <symbol id="pin-money" viewBox="0 0 42 42">
        <rect width="42" height="42" fill="#EFE7FF" rx="21"/>
        <path fill="#477C6E"
              d="M26.066 12.34l-9.17-3.513a.768.768 0 0 0-.991.443l-3.706 9.676a.768.768 0 0 0 .442.992l9.17 3.512a.768.768 0 0 0 .992-.442l3.706-9.677a.768.768 0 0 0-.443-.992z"/>
        <path fill="#00B383"
              d="M27.953 14.806l-8.83-3.382a.68.68 0 0 0-.88.392l-2.994 7.818a.68.68 0 0 0 .393.878l8.83 3.383a.68.68 0 0 0 .88-.392l2.994-7.818a.68.68 0 0 0-.393-.879z"/>
        <path fill="#BB9878"
              d="M12.317 17.42H29.27c.367 0 .665.299.665.666v14.472a.665.665 0 0 1-.665.666H12.317a1.33 1.33 0 0 1-1.33-1.33V18.75c0-.734.596-1.33 1.33-1.33z"/>
        <path fill="#896340"
              d="M29.412 22.04h-6.81c-.885 0-1.602.717-1.602 1.602v2.514c0 .884.717 1.601 1.601 1.601h6.81c.885 0 1.602-.717 1.602-1.601v-2.514c0-.885-.717-1.602-1.601-1.602z"/>
        <path fill="#EFF25B" d="M23.497 26.146a1.248 1.248 0 1 0 0-2.495 1.248 1.248 0 0 0 0 2.495z"/>
    </symbol>
    <symbol id="movie" viewBox="0 0 42 42">
        <rect width="42" height="42" fill="#DFEDF9" rx="21"/>
        <path fill="#5AA0E1" fill-opacity=".4"
              d="M27.093 13.112a1.909 1.909 0 0 1 .17-2.694l-2.907-3.296a.75.75 0 0 0-1.058-.067L7.972 20.565a.75.75 0 0 0-.067 1.06l2.906 3.296a1.909 1.909 0 1 1 2.525 2.863l2.906 3.297a.75.75 0 0 0 1.058.066l15.326-13.51a.75.75 0 0 0 .067-1.059l-2.906-3.296a1.909 1.909 0 0 1-2.694-.17z"/>
        <path fill="#fff"
              d="M28.057 17.056a1.909 1.909 0 0 1 .17-2.694l-2.906-3.296a.75.75 0 0 0-1.059-.067L8.938 24.51a.75.75 0 0 0-.067 1.06l2.906 3.296a1.909 1.909 0 1 1 2.524 2.863l2.906 3.297a.75.75 0 0 0 1.059.066l15.326-13.51a.75.75 0 0 0 .066-1.059l-2.906-3.296a1.909 1.909 0 0 1-2.694-.17z"/>
        <path fill="#FF8C06"
              d="M24.262 11l-5.287 4.66 9.329 10.582 5.287-4.661a.75.75 0 0 0 .066-1.059l-2.906-3.296a1.909 1.909 0 1 1-2.524-2.864l-2.906-3.296a.75.75 0 0 0-1.059-.067zm-5.626 9.315l-4.442 3.915a.656.656 0 0 0-.058.925l4.339 4.922c.24.272.654.298.925.058l4.442-3.915a.656.656 0 0 0 .058-.925l-4.34-4.922a.656.656 0 0 0-.924-.058z"/>
        <path fill="#fff"
              d="M23.352 16.138a1.127 1.127 0 0 0-.1 1.59l3.715 4.215a1.126 1.126 0 1 0 1.69-1.49l-3.715-4.215a1.127 1.127 0 0 0-1.59-.1z"/>
    </symbol>
    <symbol id="travel" viewBox="0 0 42 42">
        <rect width="42" height="42" fill="#DFEDF9" rx="21"/>
        <path stroke="#717273" stroke-linecap="round" stroke-linejoin="round" stroke-width="1.66"
              d="M27.013 10.812H14.954v7.922h12.059v-7.922z"/>
        <path fill="#2B4963"
              d="M13.815 34.472a1.435 1.435 0 0 1-1.434-1.434v-4.434c0-.586.476-1.061 1.062-1.061h.745a1.06 1.06 0 0 1 1.061 1.06v4.435c0 .792-.642 1.434-1.434 1.434zm14.33 0a1.435 1.435 0 0 1-1.434-1.434v-4.434c0-.586.475-1.061 1.061-1.061h.746c.585 0 1.061.475 1.061 1.06v4.435c0 .792-.643 1.434-1.434 1.434z"/>
        <path fill="#FF778F"
              d="M11.698 32.085h18.604c.697 0 1.262-.565 1.262-1.262V16.741c0-.697-.565-1.262-1.262-1.262H11.698c-.697 0-1.262.565-1.262 1.262v14.082c0 .697.565 1.262 1.262 1.262z"/>
        <path stroke="#D44761" stroke-linecap="round" stroke-linejoin="round" stroke-width="1.66"
              d="M17.797 20.46v6.643m6.406-6.643v6.643"/>
        <path fill="#2B4963"
              d="M27.038 9.5H14.962c-.531 0-.962.401-.962.896v.208c0 .495.43.896.962.896h12.076c.531 0 .962-.401.962-.896v-.208c0-.495-.43-.896-.962-.896z"/>
    </symbol>
    <symbol id="subscribe" viewBox="0 0 42 42">
        <rect width="42" height="42" fill="#DFEDF9" rx="21"/>
        <path fill="#3A3A3A"
              d="M13.629 15.716c-.61 0-1.105-.495-1.105-1.105V9.604c0-.451.366-.817.818-.817h.574c.451 0 .817.366.817.817v5.007c0 .61-.495 1.105-1.104 1.105zm11.62.12c-.61 0-1.105-.495-1.105-1.105V9.724c0-.451.367-.818.818-.818h.574c.451 0 .818.367.818.818v5.007c0 .61-.495 1.105-1.105 1.105z"/>
        <path fill="#fff"
              d="M11.239 30.73h16.4c.697 0 1.263-.566 1.263-1.263V13.424c0-.697-.566-1.263-1.263-1.263h-16.4c-.698 0-1.263.566-1.263 1.263v16.043c0 .698.565 1.263 1.263 1.263z"/>
        <path stroke="#3A3A3A" stroke-linecap="round" stroke-linejoin="round" stroke-width="1.05"
              d="M19.527 20.913l-1.81 5.317-1.81-5.317m7.242 0l-1.811 5.317-1.81-5.317m-4.248 2.659h1.473m5.659 0h1.473"/>
        <path fill="#3A3A3A"
              d="M27.771 12.161H11.106c-.624 0-1.13.576-1.13 1.286v3.58h18.926v-3.58c0-.71-.507-1.286-1.13-1.286z"/>
        <path fill="#0085FF" d="M28.901 33.213a5.122 5.122 0 1 0 0-10.244 5.122 5.122 0 0 0 0 10.244z"/>
        <path stroke="#fff" stroke-linecap="round" stroke-linejoin="round" stroke-width=".9"
              d="M28.902 24.9v3.698l1.965 1.965"/>
    </symbol>
    <symbol id="pet" viewBox="0 0 42 42">
        <rect width="42" height="42" fill="#FFCBBF" rx="21"/>
        <path stroke="#675F4F" stroke-linecap="round" stroke-miterlimit="10" stroke-width="1.8"
              d="M10.149 22.238c0 3.049 2.429 5.52 5.425 5.52 2.997 0 5.426-2.471 5.426-5.52m0 0c0 3.049 2.43 5.52 5.426 5.52s5.425-2.471 5.425-5.52"/>
        <path stroke="#675F4F" stroke-miterlimit="10" stroke-width="1.8" d="M21 23.233V16.77"/>
        <path fill="#FF5E5E"
              d="M20.043 20.758l-5.466-2.915c-2.18-1.162-1.452-4.878.957-4.878h10.932c2.409 0 3.138 3.716.957 4.878l-5.466 2.915a2.01 2.01 0 0 1-1.914 0z"/>
    </symbol>
    <symbol id="transportation" viewBox="0 0 42 42">
        <rect width="42" height="42" fill="#FFEFD0" rx="21"/>
        <path fill="#6FBD53"
              d="M13.893 23.402h14.214c.587 0 1.063-.476 1.063-1.063V9.226c0-.587-.476-1.063-1.063-1.063H13.893c-.587 0-1.063.476-1.063 1.063V22.34c0 .587.476 1.063 1.063 1.063z"/>
        <path fill="#3B384A"
              d="M30.791 33.293H26.96a.494.494 0 0 1-.494-.493v-6.73h4.82v6.73a.494.494 0 0 1-.494.493zm-15.75 0h-3.833a.494.494 0 0 1-.493-.493v-6.73h4.82v6.73a.494.494 0 0 1-.494.493z"/>
        <path fill="#85D26A"
              d="M11.81 29.721h18.38c.758 0 1.374-.615 1.374-1.374V11.393c0-.76-.616-1.375-1.375-1.375H11.811c-.76 0-1.375.616-1.375 1.375v16.954c0 .759.616 1.374 1.375 1.374z"/>
        <path fill="#fff"
              d="M13.063 25.486v.869c0 .533.433.966.966.966h1.699a.966.966 0 0 0 .966-.966v-.869a.966.966 0 0 0-.966-.966h-1.699a.966.966 0 0 0-.966.966zm12.477 0v.869c0 .533.432.966.965.966h1.7a.966.966 0 0 0 .965-.966v-.869a.966.966 0 0 0-.966-.966h-1.699a.966.966 0 0 0-.966.966z"/>
        <path fill="#D4F7FF"
              d="M13.58 21.774h14.84a.75.75 0 0 0 .75-.75v-7.84a.75.75 0 0 0-.75-.75H13.58a.75.75 0 0 0-.75.75v7.84c0 .415.335.75.75.75z"/>
    </symbol>
    <symbol id="residential" viewBox="0 0 42 42">
        <rect width="42" height="42" fill="#FFCBBF" rx="21"/>
        <path fill="#fff"
              d="M27.819 21.831h3.225a.324.324 0 0 0 .324-.324V11.78a.324.324 0 0 0-.324-.324H27.82a.324.324 0 0 0-.324.324v9.726c0 .179.145.324.324.324z"/>
        <path fill="#fff"
              d="M21 11.457L10.632 21h20.736L21 11.457zm-9.618 19.917h19.236a.75.75 0 0 0 .75-.75V21.75a.75.75 0 0 0-.75-.75H11.382a.75.75 0 0 0-.75.75v8.874c0 .414.335.75.75.75z"/>
        <path fill="#CE3707"
              d="M30.81 22.06l-9.302-8.56a.75.75 0 0 0-1.016 0l-9.302 8.56a.75.75 0 0 1-1.06-.044l-1.015-1.103a.75.75 0 0 1 .044-1.06L20.492 9.422a.75.75 0 0 1 1.016 0l11.334 10.43a.75.75 0 0 1 .043 1.06l-1.015 1.104a.75.75 0 0 1-1.06.044z"/>
        <path fill="#DA6349"
              d="M24.08 31.374h-6.16v-7.698c0-.782.635-1.418 1.418-1.418h3.324c.783 0 1.418.636 1.418 1.418v7.698z"/>
    </symbol>
    <symbol id="automobile" viewBox="0 0 42 42">
        <rect width="42" height="42" fill="#FFEFD0" rx="21"/>
        <path fill="#D4F7FF" d="M13.88 11h15v9h-15z"/>
        <path fill="#3B384A"
              d="M30.791 32.293H26.96a.494.494 0 0 1-.494-.493v-6.73h4.82v6.73a.494.494 0 0 1-.494.493zm-15.75 0h-3.833a.494.494 0 0 1-.493-.493v-6.73h4.82v6.73a.494.494 0 0 1-.494.493z"/>
        <path fill="#57BCF4"
              d="M31.19 19.194H10.81a1.5 1.5 0 0 0-1.5 1.5v6.487a1.5 1.5 0 0 0 1.5 1.5h20.38a1.5 1.5 0 0 0 1.5-1.5v-6.487a1.5 1.5 0 0 0-1.5-1.5z"/>
        <path fill="#57BCF4"
              d="M29.813 11.034a1.497 1.497 0 0 0-1.487-1.327H13.674c-.76 0-1.4.57-1.487 1.327l-.937 8.16h2.394l.706-6.082a1.125 1.125 0 0 1 1.123-.99h11.054c.574 0 1.057.426 1.123.99l.706 6.082h2.394l-.937-8.16z"/>
        <path fill="#fff"
              d="M11.31 23.774v.869c0 .533.432.966.965.966h1.7a.966.966 0 0 0 .965-.966v-.869a.966.966 0 0 0-.966-.966h-1.699a.966.966 0 0 0-.966.966zm15.75 0v.869c0 .533.432.966.966.966h1.698a.966.966 0 0 0 .967-.966v-.869a.966.966 0 0 0-.966-.966h-1.7a.966.966 0 0 0-.965.966z"/>
        <path fill="#D6D4D0"
              d="M17.186 24.209a1.4 1.4 0 0 0 1.4 1.4h4.828a1.4 1.4 0 1 0 0-2.8h-4.828a1.4 1.4 0 0 0-1.4 1.4z"/>
    </symbol>
    <symbol id="alcohol" viewBox="0 0 42 42">
        <rect width="42" height="42" fill="#D6F5E4" rx="21"/>
        <path fill="#FF9B26"
              d="M29.321 17.9h-3.948c-.74 0-1.339.6-1.339 1.339v10.647c0 .74.6 1.338 1.339 1.338h3.948c.74 0 1.338-.599 1.338-1.338V19.24c0-.739-.599-1.338-1.338-1.338z"/>
        <path fill="#D6F5E4"
              d="M28 20.428h-2.275a.434.434 0 0 0-.434.434v7.401c0 .24.194.434.434.434H28c.24 0 .433-.194.433-.434v-7.401a.434.434 0 0 0-.433-.434z"/>
        <path fill="#FF9B26"
              d="M26.415 13.634h-12.87a.75.75 0 0 0-.75.75v18.313c0 .414.336.75.75.75h12.87a.75.75 0 0 0 .75-.75V14.384a.75.75 0 0 0-.75-.75z"/>
        <path stroke="#E1772A" stroke-linecap="round" stroke-linejoin="round" stroke-width="1.66"
              d="M17.45 19.752v9.622m5.06-9.622v9.622"/>
        <mask id="a" fill="#fff">
            <path fill-rule="evenodd"
                  d="M12.815 11.738a3.025 3.025 0 0 1 5.585-1.613 2.06 2.06 0 0 1 3.342 1.613h5.443v3.794H18v6.61c0 .888-.503 1.608-1.123 1.608h-.753c-.621 0-1.124-.72-1.124-1.609v-6.61h-2.185v-3.793z"
                  clip-rule="evenodd"/>
        </mask>
        <path fill="#fff" fill-rule="evenodd"
              d="M12.815 11.738a3.025 3.025 0 0 1 5.585-1.613 2.06 2.06 0 0 1 3.342 1.613h5.443v3.794H18v6.61c0 .888-.503 1.608-1.123 1.608h-.753c-.621 0-1.124-.72-1.124-1.609v-6.61h-2.185v-3.793z"
              clip-rule="evenodd"/>
        <path fill="#F7F7F8"
              d="M18.4 10.125l-.423.267.297.472.437-.348-.311-.391zm3.342 1.613h-.5v.5h.5v-.5zm5.443 0h.5v-.5h-.5v.5zm0 3.794v.5h.5v-.5h-.5zm-9.185 0v-.5h-.5v.5h.5zm-3 0h.5v-.5H15v.5zm-2.185 0h-.5v.5h.5v-.5zm-.5-3.794h1-1zm3.525-3.525a3.525 3.525 0 0 0-3.525 3.525h1a2.525 2.525 0 0 1 2.525-2.525v-1zm2.982 1.645a3.523 3.523 0 0 0-2.982-1.645v1c.899 0 1.689.47 2.137 1.179l.845-.534zm.86-.68c-.602 0-1.157.208-1.594.556l.623.782c.267-.212.603-.338.97-.338v-1zm2.56 2.56a2.56 2.56 0 0 0-2.56-2.56v1c.861 0 1.56.698 1.56 1.56h1zm0 0h-1 1zm4.943-.5h-5.443v1h5.443v-1zm.5 4.294v-3.794h-1v3.794h1zm-9.685.5h9.185v-1H18v1zm.5 6.11v-6.61h-1v6.61h1zm-1.623 2.108c.518 0 .936-.302 1.204-.685.269-.385.419-.89.419-1.424h-1c0 .355-.101.654-.239.852-.139.199-.283.257-.384.257v1zm-.753 0h.753v-1h-.753v1zM14.5 22.141c0 .534.15 1.04.42 1.424.267.383.685.685 1.204.685v-1c-.102 0-.246-.058-.385-.258-.138-.197-.239-.496-.239-.85h-1zm0-6.61v6.61h1v-6.61h-1zm-1.685.5H15v-1h-2.185v1zm-.5-4.293v3.794h1v-3.794h-1z"
              mask="url(#a)"/>
    </symbol>
    <symbol id="corporate-income" viewBox="0 0 42 42">
        <rect width="42" height="42" fill="#EFE7FF" rx="21"/>
        <path fill="#96959B"
              d="M11.836 10.001H23.32c.096 0 .173.078.173.174v1.363H11.662v-1.363c0-.096.078-.174.174-.174z"/>
        <path fill="#9992B4" d="M10.988 11.014h13.18c.395 0 .715.32.715.713V32h-14.61V11.728c0-.394.32-.714.715-.714z"/>
        <path fill="#C4DBFF"
              d="M23.494 12.697H11.588v1.788h11.906v-1.788zm0 2.793H11.588v1.79h11.906v-1.79zm0 2.78H11.588v1.788h11.906V18.27zm0 2.778H11.588v1.789h11.906v-1.789zm0 2.779H11.588v1.788h11.906v-1.788zm0 2.778H11.588v1.789h11.906v-1.788z"/>
        <path fill="#755BFF" d="M27.124 28.641a6.822 6.822 0 1 0 0-13.643 6.822 6.822 0 0 0 0 13.643z"/>
        <path fill="#755BFF" d="M27.13 19.887l-1.38 4.052-1.38-4.052"/>
        <path stroke="#fff" stroke-linecap="round" stroke-linejoin="round" stroke-width="1.05"
              d="M27.13 19.887l-1.38 4.052-1.38-4.052"/>
        <path fill="#755BFF" d="M29.89 19.887l-1.38 4.052-1.38-4.052"/>
        <path stroke="#fff" stroke-linecap="round" stroke-linejoin="round" stroke-width="1.05"
              d="M29.89 19.887l-1.38 4.052-1.38-4.052m-3.237 2.026h1.123m4.312 0h1.123"/>
    </symbol>
    <symbol id="salary" viewBox="0 0 42 42">
        <rect width="42" height="42" fill="#DFEDF9" rx="21"/>
        <path fill="#127FE5"
              d="M11.732 29.748h18.537c.715 0 1.295-.58 1.295-1.295V13.547c0-.716-.58-1.296-1.296-1.296H11.732c-.715 0-1.295.58-1.295 1.296v14.906c0 .716.58 1.296 1.296 1.296z"/>
        <path fill="#349DFF"
              d="M21.589 20.486l9.492 7.581c.698.558.304 1.682-.589 1.682H11.508c-.893 0-1.287-1.124-.59-1.681l9.493-7.582a.944.944 0 0 1 1.178 0z"
              opacity=".7"/>
        <path fill="#52ACFF"
              d="M21.877 23.37l9.34-8.988c.821-.79.262-2.175-.876-2.175H11.66c-1.139 0-1.697 1.386-.877 2.175l9.341 8.987c.49.471 1.264.471 1.753 0z"/>
    </symbol>
    <symbol id="beauty" viewBox="0 0 42 42">
        <rect width="42" height="42" fill="#DFEDF9" rx="21"/>
        <path fill="#15C69B"
              d="M10.658 33.365h10.496a.658.658 0 0 0 .658-.658V16.773a.658.658 0 0 0-.658-.658H10.658a.658.658 0 0 0-.658.658v15.934c0 .364.295.658.658.658z"/>
        <path fill="#3F3F3F" d="M17.039 10.545h-2.262v5.57h2.262v-5.57z"/>
        <path fill="#3F3F3F"
              d="M20.317 9.126v.26a1.51 1.51 0 0 1-1.51 1.51h-4.555a.491.491 0 0 1-.491-.49v-1.28c0-.271.22-.491.49-.491h5.575c.271 0 .491.22.491.49z"/>
        <path fill="#7CE6C6" d="M21.812 18.79H10v5.026h11.812v-5.027z"/>
        <path fill="#3F3F3F"
              d="M12.875 13.489h6.062c.232 0 .421.189.421.421v2.205h-6.905V13.91c0-.232.19-.421.422-.421z"/>
        <path fill="#15C69B"
              d="M24.092 22.643h6.93c.775 0 1.403.628 1.403 1.403v2.095H22.69v-2.095c0-.774.629-1.403 1.403-1.403z"/>
        <path fill="#7CE6C6"
              d="M31.724 33.365H23.39a.702.702 0 0 1-.702-.701v-6.523h9.736v6.523a.702.702 0 0 1-.701.701z"/>
    </symbol>
    <symbol id="cafe" viewBox="0 0 42 42">
        <rect width="42" height="42" fill="#D6F5E4" rx="21"/>
        <path fill="#fff"
              d="M26.31 31.825H15.69c-.393 0-.719-.345-.748-.79l-1.096-16.918c-.031-.494.313-.914.748-.914h12.812c.436 0 .78.42.748.914l-1.096 16.918c-.03.445-.355.79-.748.79z"/>
        <path stroke="#79540C" stroke-opacity=".3" stroke-width=".5"
              d="M26.31 31.575H15.69c-.235 0-.476-.215-.498-.556l-1.096-16.918c-.025-.383.239-.648.498-.648h12.812c.26 0 .523.265.498.648l-1.096 16.918c-.022.341-.263.556-.498.556z"/>
        <path fill="#00B383" d="M21 26.847a4.093 4.093 0 1 0 0-8.186 4.093 4.093 0 0 0 0 8.186z"/>
        <path fill="#464646"
              d="M28.657 12.396H13.344a.526.526 0 0 0-.526.525v1.977c0 .29.235.525.526.525h15.313c.29 0 .525-.235.525-.525V12.92a.526.526 0 0 0-.525-.525z"/>
        <path fill="#464646"
              d="M26.037 10.175H15.963c-.825 0-1.494.669-1.494 1.494v1.453c0 .825.67 1.493 1.494 1.493h10.074c.825 0 1.494-.668 1.494-1.493v-1.453c0-.825-.67-1.494-1.494-1.494z"/>
    </symbol>
</svg>