<svg width="24" height="24" viewBox="0 0 24 24" fill="none" xmlns="http://www.w3.org/2000/svg">
<g id="ic">
<path id="trash" d="M8.45208 6.14362V4.33328C8.45208 3.75138 8.62988 3.29341 8.98549 2.95935C9.34648 2.61992 9.83678 2.4502 10.4564 2.4502H13.5275C14.1471 2.4502 14.6347 2.61992 14.9903 2.95935C15.3513 3.29341 15.5318 3.75138 15.5318 4.33328V6.14362H14.2468V4.4141C14.2468 4.1878 14.1714 4.00461 14.0205 3.86453C13.875 3.72444 13.6811 3.6544 13.4386 3.6544H10.5453C10.3028 3.6544 10.1062 3.72444 9.95531 3.86453C9.80984 4.00461 9.7371 4.1878 9.7371 4.4141V6.14362H8.45208ZM4.7829 6.79017C4.62126 6.79017 4.47848 6.73091 4.35456 6.61237C4.23602 6.48845 4.17676 6.34298 4.17676 6.17595C4.17676 6.01431 4.23602 5.87423 4.35456 5.75569C4.47848 5.63177 4.62126 5.56981 4.7829 5.56981H19.2252C19.3869 5.56981 19.527 5.62907 19.6455 5.74761C19.764 5.86614 19.8233 6.00892 19.8233 6.17595C19.8233 6.34298 19.764 6.48845 19.6455 6.61237C19.5324 6.73091 19.3923 6.79017 19.2252 6.79017H4.7829ZM8.29852 20.4486C7.71663 20.4486 7.24518 20.2762 6.88419 19.9313C6.52859 19.5919 6.33732 19.1312 6.31038 18.5493L5.73656 6.63662H7.00542L7.57924 18.4039C7.59001 18.6409 7.67352 18.8376 7.82977 18.9938C7.98602 19.1501 8.17999 19.2282 8.41167 19.2282H15.5803C15.8174 19.2282 16.014 19.1501 16.1703 18.9938C16.3265 18.843 16.4101 18.6463 16.4208 18.4039L16.9623 6.63662H18.2635L17.6978 18.5413C17.6708 19.1231 17.4769 19.5865 17.1159 19.9313C16.7549 20.2762 16.2861 20.4486 15.7096 20.4486H8.29852ZM9.60779 17.8462C9.45693 17.8462 9.3357 17.8031 9.24411 17.7169C9.15251 17.6307 9.10402 17.5148 9.09863 17.3694L8.85618 8.72983C8.85079 8.58974 8.89389 8.4766 8.98549 8.39039C9.08247 8.29879 9.20639 8.253 9.35725 8.253C9.50273 8.253 9.62126 8.2961 9.71286 8.38231C9.80984 8.46851 9.85833 8.58166 9.85833 8.72175L10.1089 17.3694C10.1089 17.5095 10.0631 17.6253 9.97148 17.7169C9.87988 17.8031 9.75865 17.8462 9.60779 17.8462ZM12 17.8462C11.8492 17.8462 11.7252 17.8031 11.6283 17.7169C11.5313 17.6253 11.4828 17.5095 11.4828 17.3694V8.72983C11.4828 8.58974 11.5313 8.4766 11.6283 8.39039C11.7252 8.29879 11.8492 8.253 12 8.253C12.1563 8.253 12.2829 8.29879 12.3799 8.39039C12.4769 8.4766 12.5254 8.58974 12.5254 8.72983V17.3694C12.5254 17.5095 12.4769 17.6253 12.3799 17.7169C12.2829 17.8031 12.1563 17.8462 12 17.8462ZM14.4004 17.8462C14.2441 17.8462 14.1202 17.8031 14.0286 17.7169C13.937 17.6253 13.8939 17.5095 13.8993 17.3694L14.1417 8.72983C14.1471 8.58435 14.1956 8.46851 14.2872 8.38231C14.3788 8.2961 14.4973 8.253 14.6428 8.253C14.7991 8.253 14.923 8.29879 15.0146 8.39039C15.1062 8.4766 15.1493 8.58974 15.1439 8.72983L14.9014 17.3694C14.896 17.5148 14.8476 17.6307 14.756 17.7169C14.6644 17.8031 14.5458 17.8462 14.4004 17.8462Z" fill="#5B5F67"/>
</g>
</svg>
