<svg width="16" height="16" viewBox="0 0 16 16" fill="none" xmlns="http://www.w3.org/2000/svg">
<path d="M10.3651 4.09607V2.88918C10.3651 2.50125 10.2466 2.19593 10.0095 1.97323C9.76885 1.74694 9.44198 1.63379 9.02891 1.63379H6.9815C6.56842 1.63379 6.24335 1.74694 6.00628 1.97323C5.76562 2.19593 5.64529 2.50125 5.64529 2.88918V4.09607H6.50197V2.94306C6.50197 2.79219 6.55226 2.67007 6.65283 2.57668C6.74982 2.48329 6.87913 2.43659 7.04076 2.43659H8.96964C9.13128 2.43659 9.26239 2.48329 9.36296 2.57668C9.45994 2.67007 9.50844 2.79219 9.50844 2.94306V4.09607H10.3651ZM12.8112 4.52711C12.919 4.52711 13.0142 4.4876 13.0968 4.40857C13.1758 4.32596 13.2153 4.22898 13.2153 4.11763C13.2153 4.00987 13.1758 3.91648 13.0968 3.83745C13.0142 3.75484 12.919 3.71353 12.8112 3.71353H3.18301C3.07525 3.71353 2.98186 3.75304 2.90283 3.83206C2.82381 3.91109 2.7843 4.00627 2.7843 4.11763C2.7843 4.22898 2.82381 4.32596 2.90283 4.40857C2.97826 4.4876 3.07166 4.52711 3.18301 4.52711H12.8112ZM10.4675 13.6327C10.8554 13.6327 11.1697 13.5178 11.4104 13.2879C11.6474 13.0616 11.775 12.7545 11.7929 12.3665L12.1755 4.42474H11.3296L10.947 12.2696C10.9398 12.4276 10.8842 12.5587 10.78 12.6629C10.6758 12.7671 10.5465 12.8191 10.3921 12.8191H5.61296C5.45492 12.8191 5.32381 12.7671 5.21964 12.6629C5.11548 12.5623 5.0598 12.4312 5.05262 12.2696L4.69163 4.42474H3.82417L4.20132 12.3612C4.21928 12.7491 4.3486 13.058 4.58926 13.2879C4.82992 13.5178 5.14242 13.6327 5.52676 13.6327H10.4675ZM9.59464 11.8978C9.69522 11.8978 9.77604 11.8691 9.8371 11.8116C9.89816 11.7541 9.93049 11.6769 9.93408 11.5799L10.0957 5.82021C10.0993 5.72682 10.0706 5.65139 10.0095 5.59392C9.94486 5.53285 9.86224 5.50232 9.76167 5.50232C9.66469 5.50232 9.58566 5.53106 9.5246 5.58853C9.45994 5.646 9.42762 5.72143 9.42762 5.81482L9.26059 11.5799C9.26059 11.6733 9.29112 11.7505 9.35219 11.8116C9.41325 11.8691 9.49407 11.8978 9.59464 11.8978ZM7.99982 11.8978C8.10039 11.8978 8.183 11.8691 8.24766 11.8116C8.31232 11.7505 8.34464 11.6733 8.34464 11.5799V5.82021C8.34464 5.72682 8.31232 5.65139 8.24766 5.59392C8.183 5.53285 8.10039 5.50232 7.99982 5.50232C7.89565 5.50232 7.81124 5.53285 7.74658 5.59392C7.68193 5.65139 7.6496 5.72682 7.6496 5.82021V11.5799C7.6496 11.6733 7.68193 11.7505 7.74658 11.8116C7.81124 11.8691 7.89565 11.8978 7.99982 11.8978ZM6.3996 11.8978C6.50377 11.8978 6.58638 11.8691 6.64745 11.8116C6.70851 11.7505 6.73724 11.6733 6.73365 11.5799L6.57201 5.82021C6.56842 5.72323 6.53609 5.646 6.47503 5.58853C6.41397 5.53106 6.33495 5.50232 6.23796 5.50232C6.1338 5.50232 6.05118 5.53285 5.99012 5.59392C5.92905 5.65139 5.90032 5.72682 5.90391 5.82021L6.06555 11.5799C6.06914 11.6769 6.10147 11.7541 6.16253 11.8116C6.22359 11.8691 6.30262 11.8978 6.3996 11.8978Z" fill="white"/>
</svg>
