<svg xmlns="http://www.w3.org/2000/svg"><symbol id="asset-secondary" viewBox="0 0 28 28"><path fill="#A9ACB2" d="M22.09 12.305c.953 0 1.72.803 1.72 1.8v1.801c0 .998-.767 1.8-1.72 1.8h-4.315c-1.424 0-2.585-1.215-2.585-2.706 0-1.49 1.161-2.706 2.585-2.706h4.315m0-2.294h-4.315C15.147 10 13 12.248 13 15s2.147 5 4.775 5h4.315c2.158 0 3.91-1.835 3.91-4.094v-1.8c0-2.26-1.752-4.095-3.91-4.095V10z"/><path fill="#A9ACB2" d="M22.895 6.3h-.94a1.106 1.106 0 0 1-1.105-1.1V4.1c0-.605-.497-1.1-1.105-1.1H6.315A3.303 3.303 0 0 0 3 6.3v15.037c0 .935.365 1.837 1.017 2.519A3.698 3.698 0 0 0 6.68 25h14.003A3.304 3.304 0 0 0 24 21.7V7.4c0-.605-.497-1.1-1.105-1.1zM6.83 6.752c0-.605.497-1.1 1.105-1.1h9.92c.608 0 1.105.495 1.105 1.1 0 .605-.497 1.1-1.105 1.1h-9.92a1.106 1.106 0 0 1-1.105-1.1zm17.104 8.821c0 .957-.774 1.727-1.736 1.727h-4.343a2.607 2.607 0 0 1-2.609-2.596 2.607 2.607 0 0 1 2.609-2.596h4.343c.962 0 1.736.77 1.736 1.727v1.738z"/></symbol><symbol id="add-button" viewBox="0 0 48 48"><rect width="48" height="48" fill="#735BF2" rx="24"/><path fill="#fff" d="M13.177 23.997c0-.396.142-.737.427-1.021.284-.293.625-.44 1.021-.44h7.927v-7.914c0-.396.142-.737.427-1.021A1.393 1.393 0 0 1 24 13.174c.406 0 .75.142 1.035.427.284.284.427.625.427 1.021v7.914h7.913c.397 0 .737.146 1.022.44.284.284.427.625.427 1.021 0 .405-.143.75-.427 1.035a1.416 1.416 0 0 1-1.022.413h-7.913v7.94c0 .388-.143.724-.427 1.009A1.41 1.41 0 0 1 24 34.82c-.396 0-.737-.142-1.021-.426a1.38 1.38 0 0 1-.427-1.009v-7.94h-7.927c-.396 0-.737-.137-1.021-.413a1.41 1.41 0 0 1-.427-1.035z"/></symbol><symbol id="asset-primary" viewBox="0 0 28 28"><path fill="#735BF2" d="M22.09 12.305c.953 0 1.72.803 1.72 1.8v1.801c0 .998-.767 1.8-1.72 1.8h-4.315c-1.424 0-2.585-1.215-2.585-2.706 0-1.49 1.161-2.706 2.585-2.706h4.315m0-2.294h-4.315C15.147 10 13 12.248 13 15s2.147 5 4.775 5h4.315c2.158 0 3.91-1.835 3.91-4.094v-1.8c0-2.26-1.752-4.095-3.91-4.095V10z"/><path fill="#735BF2" d="M22.895 6.3h-.94a1.106 1.106 0 0 1-1.105-1.1V4.1c0-.605-.497-1.1-1.105-1.1H6.315A3.303 3.303 0 0 0 3 6.3v15.037c0 .935.365 1.837 1.017 2.519A3.698 3.698 0 0 0 6.68 25h14.003A3.304 3.304 0 0 0 24 21.7V7.4c0-.605-.497-1.1-1.105-1.1zM6.83 6.752c0-.605.497-1.1 1.105-1.1h9.92c.608 0 1.105.495 1.105 1.1 0 .605-.497 1.1-1.105 1.1h-9.92a1.106 1.106 0 0 1-1.105-1.1zm17.104 8.821c0 .957-.774 1.727-1.736 1.727h-4.343a2.607 2.607 0 0 1-2.609-2.596 2.607 2.607 0 0 1 2.609-2.596h4.343c.962 0 1.736.77 1.736 1.727v1.738z"/></symbol><symbol id="setting-primary" viewBox="0 0 28 28"><path fill="#735BF2" d="M13.376 2c-.528 0-1.005.317-1.21.804l-.982 2.337c-.112.266-.34.463-.6.59a1.034 1.034 0 0 1-.848.037l-2.315-.973a1.312 1.312 0 0 0-1.436.282l-.908.908a1.312 1.312 0 0 0-.282 1.436l.968 2.303c.119.283.103.605-.028.883a1.13 1.13 0 0 1-.58.571l-2.35.988A1.313 1.313 0 0 0 2 13.376v1.248c0 .528.317 1.005.804 1.21l2.351.988c.26.11.46.316.58.57.131.279.147.601.028.884l-.968 2.303a1.313 1.313 0 0 0 .282 1.436l.908.908c.377.377.945.488 1.436.282l2.316-.973c.276-.116.578-.115.847.016.262.127.487.342.6.61l.982 2.338c.205.487.681.804 1.21.804h1.248c.528 0 1.005-.317 1.21-.804l.998-2.374a1.03 1.03 0 0 1 .536-.547c.294-.13.635-.152.932-.028l2.279.958a1.313 1.313 0 0 0 1.436-.282l.908-.908c.377-.377.488-.945.282-1.436l-.968-2.304a1.08 1.08 0 0 1 .016-.882 1.16 1.16 0 0 1 .593-.572l2.35-.987c.487-.205.804-.681.804-1.21v-1.248c0-.528-.317-1.005-.804-1.21l-2.346-.986a1.129 1.129 0 0 1-.576-.577 1.087 1.087 0 0 1-.039-.875l.97-2.307a1.313 1.313 0 0 0-.282-1.436l-.908-.908a1.313 1.313 0 0 0-1.436-.282l-2.304.968a1.08 1.08 0 0 1-.882-.016 1.154 1.154 0 0 1-.572-.593l-.987-2.35A1.313 1.313 0 0 0 14.624 2h-1.248zM14 9.481a4.483 4.483 0 0 1 4.489 4.49A4.483 4.483 0 0 1 14 18.458a4.483 4.483 0 0 1-4.489-4.489A4.483 4.483 0 0 1 14 9.481z"/></symbol><symbol id="report-secondary" viewBox="0 0 28 28"><path fill="#A9ACB2" d="M5.655 20c-.546 0-.96-.134-1.241-.401-.276-.262-.414-.655-.414-1.18v-7.154c0-.524.138-.92.414-1.188.281-.267.695-.4 1.241-.4H8.02c.552 0 .966.133 1.242.4.28.268.421.664.421 1.188v7.155c0 .524-.14.917-.421 1.179-.276.267-.69.401-1.242.401H5.655zm7.155 0c-.546 0-.96-.134-1.241-.401-.276-.262-.414-.655-.414-1.18V8.93c0-.524.138-.92.414-1.187.28-.267.695-.4 1.241-.4h2.372c.546 0 .958.133 1.233.4.282.268.422.663.422 1.187v9.49c0 .524-.14.917-.422 1.179-.275.267-.687.401-1.233.401H12.81zm7.155 0c-.541 0-.952-.134-1.234-.401-.276-.262-.414-.655-.414-1.18V6.59c0-.525.139-.92.414-1.188.282-.267.693-.401 1.234-.401h2.372c.551 0 .965.134 1.241.401.281.267.422.663.422 1.187V18.42c0 .524-.14.917-.422 1.179-.276.267-.69.401-1.241.401h-2.372z"/><rect width="20" height="2" x="4" y="21" fill="#A9ACB2" rx=".5"/></symbol><symbol id="report-primary" viewBox="0 0 28 28"><path fill="#735BF2" d="M5.655 20c-.546 0-.96-.134-1.241-.401-.276-.262-.414-.655-.414-1.18v-7.154c0-.524.138-.92.414-1.188.281-.267.695-.4 1.241-.4H8.02c.552 0 .966.133 1.242.4.28.268.421.664.421 1.188v7.155c0 .524-.14.917-.421 1.179-.276.267-.69.401-1.242.401H5.655zm7.155 0c-.546 0-.96-.134-1.241-.401-.276-.262-.414-.655-.414-1.18V8.93c0-.524.138-.92.414-1.187.28-.267.695-.4 1.241-.4h2.372c.546 0 .958.133 1.233.4.282.268.422.663.422 1.187v9.49c0 .524-.14.917-.422 1.179-.275.267-.687.401-1.233.401H12.81zm7.155 0c-.541 0-.952-.134-1.234-.401-.276-.262-.414-.655-.414-1.18V6.59c0-.525.139-.92.414-1.188.282-.267.693-.401 1.234-.401h2.372c.551 0 .965.134 1.241.401.281.267.422.663.422 1.187V18.42c0 .524-.14.917-.422 1.179-.276.267-.69.401-1.241.401h-2.372z"/><rect width="20" height="2" x="4" y="21" fill="#735BF2" rx=".5"/></symbol><symbol id="calendar-primary" viewBox="0 0 28 28"><path fill="#735BF2" d="M3.19 11.84H24.8v12.77H3.19z"/><path stroke="#735BF2" stroke-linecap="round" stroke-linejoin="round" stroke-width="1.96" d="M3.19 4.88H24.8v19.73H3.19zM18.631 3v4.698M9.369 3v4.698m-6.175 3.759h21.612"/></symbol><symbol id="calendar-secondary" viewBox="0 0 28 28"><path fill="#A9ACB2" d="M3.19 11.84H24.8v12.77H3.19z"/><path stroke="#A9ACB2" stroke-linecap="round" stroke-linejoin="round" stroke-width="1.96" d="M3.19 4.88H24.8v19.73H3.19zM18.631 3v4.698M9.369 3v4.698m-6.175 3.759h21.612"/></symbol><symbol id="setting-secondary" viewBox="0 0 28 28"><path fill="#A9ACB2" d="M13.376 2c-.528 0-1.005.317-1.21.804l-.982 2.337c-.112.266-.34.463-.6.59a1.034 1.034 0 0 1-.848.037l-2.315-.973a1.312 1.312 0 0 0-1.436.282l-.908.908a1.312 1.312 0 0 0-.282 1.436l.968 2.303c.119.283.103.605-.028.883a1.13 1.13 0 0 1-.58.571l-2.35.988A1.313 1.313 0 0 0 2 13.376v1.248c0 .528.317 1.005.804 1.21l2.351.988c.26.11.46.316.58.57.131.279.147.601.028.884l-.968 2.303a1.313 1.313 0 0 0 .282 1.436l.908.908c.377.377.945.488 1.436.282l2.316-.973c.276-.116.578-.115.847.016.262.127.487.342.6.61l.982 2.338c.205.487.681.804 1.21.804h1.248c.528 0 1.005-.317 1.21-.804l.998-2.374a1.03 1.03 0 0 1 .536-.547c.294-.13.635-.152.932-.028l2.279.958a1.313 1.313 0 0 0 1.436-.282l.908-.908c.377-.377.488-.945.282-1.436l-.968-2.304a1.08 1.08 0 0 1 .016-.882 1.16 1.16 0 0 1 .593-.572l2.35-.987c.487-.205.804-.681.804-1.21v-1.248c0-.528-.317-1.005-.804-1.21l-2.346-.986a1.129 1.129 0 0 1-.576-.577 1.087 1.087 0 0 1-.039-.875l.97-2.307a1.313 1.313 0 0 0-.282-1.436l-.908-.908a1.313 1.313 0 0 0-1.436-.282l-2.304.968a1.08 1.08 0 0 1-.882-.016 1.154 1.154 0 0 1-.572-.593l-.987-2.35A1.313 1.313 0 0 0 14.624 2h-1.248zM14 9.481a4.483 4.483 0 0 1 4.489 4.49A4.483 4.483 0 0 1 14 18.458a4.483 4.483 0 0 1-4.489-4.489A4.483 4.483 0 0 1 14 9.481z"/></symbol><symbol id="filter-white" viewBox="0 0 24 24"><path stroke="#fff" stroke-width="1.6" d="M3 12h18"/><path fill="#fff" fill-rule="evenodd" d="M2.2 6a.8.8 0 0 1 .8-.8h18a.8.8 0 0 1 0 1.6H3a.8.8 0 0 1-.8-.8zm0 6a.8.8 0 0 1 .8-.8h18a.8.8 0 0 1 0 1.6H3a.8.8 0 0 1-.8-.8zm.8 5.2a.8.8 0 0 0 0 1.6h18a.8.8 0 0 0 0-1.6H3z" clip-rule="evenodd"/><mask id="a" width="16" height="18" x="4" y="3" maskUnits="userSpaceOnUse"><path fill="#fff" d="M4 3h16v18H4z"/><path fill-rule="evenodd" d="M8 6a1 1 0 1 1-2 0 1 1 0 0 1 2 0zm10 6a1 1 0 1 1-2 0 1 1 0 0 1 2 0zm-7 7a1 1 0 1 0 0-2 1 1 0 0 0 0 2z" clip-rule="evenodd"/></mask><path fill="#fff" fill-rule="evenodd" d="M8 6a1 1 0 1 1-2 0 1 1 0 0 1 2 0zm10 6a1 1 0 1 1-2 0 1 1 0 0 1 2 0zm-7 7a1 1 0 1 0 0-2 1 1 0 0 0 0 2z" clip-rule="evenodd"/><path fill="#fff" d="M7 8.6A2.6 2.6 0 0 0 9.6 6H6.4a.6.6 0 0 1 .6-.6v3.2zM4.4 6A2.6 2.6 0 0 0 7 8.6V5.4a.6.6 0 0 1 .6.6H4.4zM7 3.4A2.6 2.6 0 0 0 4.4 6h3.2a.6.6 0 0 1-.6.6V3.4zM9.6 6A2.6 2.6 0 0 0 7 3.4v3.2a.6.6 0 0 1-.6-.6h3.2zm7.4 8.6a2.6 2.6 0 0 0 2.6-2.6h-3.2a.6.6 0 0 1 .6-.6v3.2zM14.4 12a2.6 2.6 0 0 0 2.6 2.6v-3.2a.6.6 0 0 1 .6.6h-3.2zM17 9.4a2.6 2.6 0 0 0-2.6 2.6h3.2a.6.6 0 0 1-.6.6V9.4zm2.6 2.6A2.6 2.6 0 0 0 17 9.4v3.2a.6.6 0 0 1-.6-.6h3.2zm-9.2 6a.6.6 0 0 1 .6-.6v3.2a2.6 2.6 0 0 0 2.6-2.6h-3.2zm.6.6a.6.6 0 0 1-.6-.6h3.2a2.6 2.6 0 0 0-2.6-2.6v3.2zm.6-.6a.6.6 0 0 1-.6.6v-3.2A2.6 2.6 0 0 0 8.4 18h3.2zm-.6-.6a.6.6 0 0 1 .6.6H8.4a2.6 2.6 0 0 0 2.6 2.6v-3.2z" mask="url(#a)"/></symbol><symbol id="user" viewBox="0 0 24 24"><path fill="#735BF2" fill-rule="evenodd" d="M2.05 19.138a.781.781 0 1 1 1.53.318c-.05.243.01.493.166.684.09.111.291.297.625.297h15.258a.794.794 0 0 0 .625-.297.816.816 0 0 0 .166-.684c-.811-3.894-4.246-6.739-8.213-6.835a5.272 5.272 0 0 1-.415 0 8.594 8.594 0 0 0-6.94 3.815.781.781 0 0 1-1.299-.87 10.162 10.162 0 0 1 5.266-4 5.308 5.308 0 0 1-2.132-4.253A5.319 5.319 0 0 1 12 2a5.319 5.319 0 0 1 5.313 5.313c0 1.738-.84 3.284-2.135 4.254 1.187.39 2.3.998 3.274 1.8a10.193 10.193 0 0 1 3.497 5.77A2.372 2.372 0 0 1 19.63 22H4.371a2.372 2.372 0 0 1-2.32-2.862zm13.7-11.826A3.754 3.754 0 0 0 12 3.562a3.754 3.754 0 0 0-3.75 3.75 3.755 3.755 0 0 0 3.56 3.746 10 10 0 0 1 .38 0 3.755 3.755 0 0 0 3.56-3.746z" clip-rule="evenodd"/><path fill="#735BF2" d="M2.05 19.138l.196.04-.195-.04zm.925-.606l.04-.196-.04.196zm.605.924l-.195-.04.195.04zm.166.684l-.155.127.155-.127zm16.508 0l.155.127-.155-.127zm.166-.684l-.196.04.196-.04zm-8.213-6.835l-.008-.2h.013l-.005.2zm-.415 0l-.005-.2h.013l-.008.2zm-6.94 3.815l-.167-.111.166.11zm-1.085.214l-.111.166.111-.166zm-.214-1.084l.167.111-.167-.111zm5.266-4l.12-.161.307.23-.364.12-.063-.19zm6.36 0l-.063.19-.365-.12.308-.23.12.16zm3.273 1.8l.127-.154-.127.154zm3.497 5.772l-.196.04.196-.04zm-.483 1.988l.155.126-.155-.126zm-18.932 0L2.689 21l-.155.126zm9.276-10.068l.004.2H11.8l.01-.2zm.38 0l.01.2h-.015l.004-.2zM1.854 19.097a.981.981 0 0 1 1.16-.76l-.081.39a.581.581 0 0 0-.688.451l-.391-.081zm1.16-.76a.98.98 0 0 1 .761 1.16l-.391-.082a.581.581 0 0 0-.451-.687l.082-.392zm.761 1.16a.617.617 0 0 0 .125.517l-.31.253a1.016 1.016 0 0 1-.206-.852l.391.082zm.125.517c.07.086.22.224.47.224v.4a.994.994 0 0 1-.78-.371l.31-.253zm.47.224h15.258v.4H4.371v-.4zm15.258 0c.25 0 .4-.138.47-.224l.31.253a.994.994 0 0 1-.78.37v-.4zm.47-.224a.616.616 0 0 0 .125-.517l.391-.082c.063.302-.012.613-.206.852l-.31-.253zm.125-.517c-.792-3.803-4.147-6.582-8.022-6.676l.01-.4c4.06.098 7.574 3.009 8.403 6.994l-.391.082zm-8.01-6.676a5.676 5.676 0 0 1-.214.004v-.4c.067 0 .133-.001.2-.004l.015.4zm-.214.004a5.51 5.51 0 0 1-.216-.004l.016-.4c.066.003.133.004.2.004v.4zm-.203-.004a8.394 8.394 0 0 0-6.78 3.726l-.332-.223a8.794 8.794 0 0 1 7.102-3.903l.01.4zm-6.78 3.726a.981.981 0 0 1-1.361.269l.223-.332a.581.581 0 0 0 .806-.16l.332.223zm-1.361.269a.981.981 0 0 1-.269-1.362l.333.223a.581.581 0 0 0 .159.807l-.223.332zm-.269-1.362a10.362 10.362 0 0 1 5.37-4.079l.125.38a9.963 9.963 0 0 0-5.162 3.922l-.333-.223zM8.7 11.725a5.508 5.508 0 0 1-2.212-4.412h.4a5.11 5.11 0 0 0 2.052 4.092l-.24.32zM6.487 7.313A5.519 5.519 0 0 1 12 1.8v.4a5.119 5.119 0 0 0-5.113 5.113h-.4zM12 1.8a5.519 5.519 0 0 1 5.512 5.513h-.4A5.119 5.119 0 0 0 12 2.2v-.4zm5.512 5.513a5.508 5.508 0 0 1-2.214 4.414l-.24-.32a5.108 5.108 0 0 0 2.055-4.094h.4zm-2.271 4.064a10.352 10.352 0 0 1 3.338 1.835l-.254.309a9.952 9.952 0 0 0-3.21-1.764l.126-.38zm3.338 1.835a10.392 10.392 0 0 1 3.566 5.885l-.392.081a9.992 9.992 0 0 0-3.428-5.657l.254-.309zm3.566 5.885c.16.764-.032 1.55-.523 2.155l-.31-.252a2.172 2.172 0 0 0 .441-1.822l.392-.081zm-.523 2.155a2.558 2.558 0 0 1-1.993.948v-.4c.656 0 1.269-.291 1.682-.8l.31.252zm-1.993.948H4.371v-.4h15.258v.4zm-15.258 0a2.558 2.558 0 0 1-1.993-.948l.31-.252a2.16 2.16 0 0 0 1.683.8v.4zm-1.992-.948a2.572 2.572 0 0 1-.524-2.155l.391.081c-.134.647.027 1.31.443 1.822l-.31.252zM15.55 7.312A3.554 3.554 0 0 0 12 3.762v-.4a3.954 3.954 0 0 1 3.95 3.95h-.4zM12 3.762a3.554 3.554 0 0 0-3.55 3.55h-.4A3.954 3.954 0 0 1 12 3.362v.4zm-3.55 3.55a3.555 3.555 0 0 0 3.37 3.546l-.02.4a3.955 3.955 0 0 1-3.75-3.946h.4zm3.357 3.546c.064-.002.128-.002.193-.002v.4c-.062 0-.124 0-.186.002l-.008-.4zm.193-.002c.064 0 .129 0 .193.002l-.008.4a9.565 9.565 0 0 0-.185-.002v-.4zm.18.002a3.555 3.555 0 0 0 3.37-3.546h.4a3.955 3.955 0 0 1-3.751 3.946l-.02-.4z"/></symbol><symbol id="filter-main" viewBox="0 0 24 24"><path stroke="#735BF2" stroke-width="1.6" d="M3 12h18"/><path fill="#735BF2" fill-rule="evenodd" d="M2.2 6a.8.8 0 0 1 .8-.8h18a.8.8 0 0 1 0 1.6H3a.8.8 0 0 1-.8-.8zm0 6a.8.8 0 0 1 .8-.8h18a.8.8 0 0 1 0 1.6H3a.8.8 0 0 1-.8-.8zm.8 5.2a.8.8 0 0 0 0 1.6h18a.8.8 0 0 0 0-1.6H3z" clip-rule="evenodd"/><mask id="a" width="16" height="18" x="4" y="3" maskUnits="userSpaceOnUse"><path fill="#fff" d="M4 3h16v18H4z"/><path fill-rule="evenodd" d="M8 6a1 1 0 1 1-2 0 1 1 0 0 1 2 0zm10 6a1 1 0 1 1-2 0 1 1 0 0 1 2 0zm-7 7a1 1 0 1 0 0-2 1 1 0 0 0 0 2z" clip-rule="evenodd"/></mask><path fill="#fff" fill-rule="evenodd" d="M8 6a1 1 0 1 1-2 0 1 1 0 0 1 2 0zm10 6a1 1 0 1 1-2 0 1 1 0 0 1 2 0zm-7 7a1 1 0 1 0 0-2 1 1 0 0 0 0 2z" clip-rule="evenodd"/><path fill="#735BF2" d="M7 8.6A2.6 2.6 0 0 0 9.6 6H6.4a.6.6 0 0 1 .6-.6v3.2zM4.4 6A2.6 2.6 0 0 0 7 8.6V5.4a.6.6 0 0 1 .6.6H4.4zM7 3.4A2.6 2.6 0 0 0 4.4 6h3.2a.6.6 0 0 1-.6.6V3.4zM9.6 6A2.6 2.6 0 0 0 7 3.4v3.2a.6.6 0 0 1-.6-.6h3.2zm7.4 8.6a2.6 2.6 0 0 0 2.6-2.6h-3.2a.6.6 0 0 1 .6-.6v3.2zM14.4 12a2.6 2.6 0 0 0 2.6 2.6v-3.2a.6.6 0 0 1 .6.6h-3.2zM17 9.4a2.6 2.6 0 0 0-2.6 2.6h3.2a.6.6 0 0 1-.6.6V9.4zm2.6 2.6A2.6 2.6 0 0 0 17 9.4v3.2a.6.6 0 0 1-.6-.6h3.2zm-9.2 6a.6.6 0 0 1 .6-.6v3.2a2.6 2.6 0 0 0 2.6-2.6h-3.2zm.6.6a.6.6 0 0 1-.6-.6h3.2a2.6 2.6 0 0 0-2.6-2.6v3.2zm.6-.6a.6.6 0 0 1-.6.6v-3.2A2.6 2.6 0 0 0 8.4 18h3.2zm-.6-.6a.6.6 0 0 1 .6.6H8.4a2.6 2.6 0 0 0 2.6 2.6v-3.2z" mask="url(#a)"/></symbol><symbol id="search" viewBox="0 0 24 24"><path fill="#735BF2" d="M3.645 10.106c0-.957.179-1.853.538-2.69a7.087 7.087 0 0 1 1.503-2.22 6.817 6.817 0 0 1 4.91-2.041c.962 0 1.862.179 2.699.537a6.9 6.9 0 0 1 2.22 1.503 6.968 6.968 0 0 1 1.494 2.22 6.66 6.66 0 0 1 .547 2.69c0 .752-.117 1.467-.35 2.144a6.864 6.864 0 0 1-.948 1.853l3.894 3.912c.12.114.208.247.265.401.063.154.094.316.094.487 0 .239-.054.455-.162.649a1.227 1.227 0 0 1-1.093.623 1.34 1.34 0 0 1-.496-.094 1.16 1.16 0 0 1-.418-.273l-3.92-3.92a7.25 7.25 0 0 1-1.793.863 6.654 6.654 0 0 1-2.033.307c-.956 0-1.856-.18-2.699-.538a6.993 6.993 0 0 1-2.211-1.494 7.115 7.115 0 0 1-1.503-2.212 6.839 6.839 0 0 1-.538-2.707zm1.819 0c0 .711.13 1.377.392 1.998a5.22 5.22 0 0 0 1.11 1.64c.473.467 1.02.834 1.64 1.101.62.268 1.284.402 1.99.402.712 0 1.378-.134 1.998-.402a5.19 5.19 0 0 0 2.742-2.74 5.014 5.014 0 0 0 .401-2c0-.705-.134-1.368-.401-1.989a5.22 5.22 0 0 0-1.11-1.64 5.005 5.005 0 0 0-1.632-1.101 4.993 4.993 0 0 0-1.998-.402c-.706 0-1.37.134-1.99.402a5.123 5.123 0 0 0-1.64 1.101 5.22 5.22 0 0 0-1.11 1.64 5.065 5.065 0 0 0-.392 1.99z"/></symbol><symbol id="alarm" viewBox="0 0 24 24"><path fill="#735BF2" d="M3 16.972c0-.333.088-.65.264-.952.176-.308.4-.604.67-.887.276-.282.556-.562.838-.839.22-.213.39-.493.51-.839.125-.345.22-.726.282-1.14.063-.415.114-.84.151-1.273.038-1.188.186-2.241.443-3.159.264-.918.654-1.687 1.17-2.31.521-.622 1.194-1.08 2.017-1.376a3.125 3.125 0 0 1 1.009-1.565C10.85 2.21 11.448 2 12.145 2c.704 0 1.305.21 1.801.632.497.42.833.942 1.009 1.565.823.295 1.493.754 2.008 1.376.522.623.911 1.392 1.17 2.31.263.918.414 1.97.452 3.159.037.433.088.857.15 1.272.063.415.155.796.274 1.141.126.346.299.626.518.84.283.276.56.556.83.838.277.283.503.579.679.887.176.301.264.619.264.952 0 .402-.141.726-.424.971-.277.239-.66.358-1.15.358H15.84a3.463 3.463 0 0 1-.518 1.697 3.584 3.584 0 0 1-1.292 1.273c-.54.327-1.17.49-1.886.49-.71 0-1.338-.163-1.885-.49a3.684 3.684 0 0 1-1.292-1.273 3.52 3.52 0 0 1-.51-1.697H4.575c-.49 0-.876-.12-1.16-.358-.276-.245-.414-.569-.414-.971zm2.253-.396h13.765v-.113a21.563 21.563 0 0 1-.32-.33c-.132-.138-.28-.29-.443-.453-.157-.17-.315-.342-.472-.518a2.652 2.652 0 0 1-.424-.66c-.12-.264-.22-.56-.302-.886a11.93 11.93 0 0 1-.207-1.085c-.05-.39-.088-.81-.113-1.263-.038-1.27-.182-2.282-.434-3.036-.251-.76-.585-1.326-1-1.697a3.274 3.274 0 0 0-1.376-.773.582.582 0 0 1-.264-.132.455.455 0 0 1-.104-.292c-.025-.478-.163-.865-.414-1.16-.245-.296-.579-.443-1-.443-.408 0-.738.147-.99.443-.251.295-.39.682-.414 1.16a.427.427 0 0 1-.114.292.525.525 0 0 1-.264.132 3.268 3.268 0 0 0-1.376.773c-.409.37-.739.936-.99 1.697-.252.754-.396 1.766-.434 3.036-.025.452-.066.873-.122 1.263a8.5 8.5 0 0 1-.208 1.085 5.225 5.225 0 0 1-.301.886c-.12.257-.261.477-.425.66-.15.176-.308.348-.471.518l-.453.453-.33.33v.113zm4.988 1.725c.031.597.223 1.072.575 1.424.358.352.801.528 1.33.528.54 0 .983-.176 1.329-.528.352-.352.546-.827.584-1.424h-3.818z"/></symbol></svg>