<svg width="24" height="25" viewBox="0 0 24 25" fill="none" xmlns="http://www.w3.org/2000/svg">
<path fill-rule="evenodd" clip-rule="evenodd" d="M2.19922 6.49922C2.19922 6.05739 2.55739 5.69922 2.99922 5.69922H20.9992C21.441 5.69922 21.7992 6.05739 21.7992 6.49922C21.7992 6.94105 21.441 7.29922 20.9992 7.29922H2.99922C2.55739 7.29922 2.19922 6.94105 2.19922 6.49922ZM2.19922 12.4992C2.19922 12.0574 2.55739 11.6992 2.99922 11.6992H20.9992C21.441 11.6992 21.7992 12.0574 21.7992 12.4992C21.7992 12.941 21.441 13.2992 20.9992 13.2992H2.99922C2.55739 13.2992 2.19922 12.941 2.19922 12.4992ZM2.99922 17.6992C2.55739 17.6992 2.19922 18.0574 2.19922 18.4992C2.19922 18.941 2.55739 19.2992 2.99922 19.2992H20.9992C21.441 19.2992 21.7992 18.941 21.7992 18.4992C21.7992 18.0574 21.441 17.6992 20.9992 17.6992H2.99922Z" fill="#8C919C"/>
</svg>
