<svg width="28" height="28" viewBox="0 0 28 28" fill="none" xmlns="http://www.w3.org/2000/svg">
<g id="ic">
<path id="pencil" d="M20.2783 23.3643L23.1772 24.4666C23.3772 24.5408 23.566 24.4926 23.7437 24.3218C23.914 24.1585 23.9584 23.9655 23.877 23.7428L22.7441 20.8924L9.61552 7.72011L7.14975 10.2031L20.2783 23.3643ZM5.93908 8.98945L8.41595 6.51757L7.072 5.18141C6.74619 4.86222 6.40558 4.69149 6.05015 4.66922C5.68732 4.64695 5.35411 4.7917 5.05052 5.10347L4.51738 5.63793C4.21379 5.9497 4.06939 6.28374 4.0842 6.64005C4.09901 6.98893 4.26932 7.33039 4.59513 7.66443L5.93908 8.98945Z" fill="white"/>
</g>
</svg>
