<svg width="25" height="24" viewBox="0 0 25 24" fill="none" xmlns="http://www.w3.org/2000/svg">
<path d="M7.11847 20.0262L4.63366 20.9711C4.4623 21.0347 4.30045 20.9933 4.14813 20.847C4.00215 20.707 3.96407 20.5416 4.03388 20.3507L5.00496 17.9075L16.258 6.61696L18.3715 8.74526L7.11847 20.0262ZM19.4092 7.70497L17.2862 5.58621L18.4381 4.44093C18.7174 4.16734 19.0094 4.021 19.314 4.00191C19.625 3.98282 19.9106 4.10689 20.1708 4.37412L20.6278 4.83223C20.888 5.09946 21.0118 5.38578 20.9991 5.69119C20.9864 5.99023 20.8404 6.28292 20.5612 6.56924L19.4092 7.70497Z" fill="#5B5F67"/>
</svg>
