<svg width="320" height="320" viewBox="0 0 320 320" fill="none" xmlns="http://www.w3.org/2000/svg">
<g clip-path="url(#clip0_6823_30416)">
<path d="M140.505 138.511C140.505 123.104 128.094 110.693 112.687 110.693V166.33C128.094 166.33 140.505 153.918 140.505 138.511Z" fill="#FFC8D5"/>
<path d="M110.761 167.935H73.3127C69.8263 167.935 67 170.761 67 174.247V190.082C67 193.569 69.8263 196.395 73.3127 196.395H110.761C114.247 196.395 117.073 193.569 117.073 190.082V174.247C117.073 170.761 114.247 167.935 110.761 167.935Z" fill="#FF87A4"/>
<path d="M199.031 129.096H130.02C100.711 129.096 76.951 152.856 76.951 182.165V182.272C76.951 211.581 100.711 235.341 130.02 235.341H199.031C228.341 235.341 252.101 211.581 252.101 182.272V182.165C252.101 152.856 228.341 129.096 199.031 129.096Z" fill="#FFC8D5"/>
<path d="M100.918 170.502C104.64 170.502 107.658 167.485 107.658 163.762C107.658 160.039 104.64 157.021 100.918 157.021C97.1949 157.021 94.177 160.039 94.177 163.762C94.177 167.485 97.1949 170.502 100.918 170.502Z" fill="#FF658A"/>
<path d="M198.603 138.725H138.259C135.304 138.725 132.909 141.12 132.909 144.075V145.359C132.909 148.314 135.304 150.709 138.259 150.709H198.603C201.558 150.709 203.953 148.314 203.953 145.359V144.075C203.953 141.12 201.558 138.725 198.603 138.725Z" fill="#FFA7BC"/>
<path d="M169.501 138.939C187.583 138.939 202.241 124.281 202.241 106.199C202.241 88.1171 187.583 73.4588 169.501 73.4588C151.419 73.4588 136.76 88.1171 136.76 106.199C136.76 124.281 151.419 138.939 169.501 138.939Z" fill="#FFAB07"/>
<path d="M214.116 216.189H202.026C198.008 216.189 194.75 219.446 194.75 223.465V239.193C194.75 243.211 198.008 246.468 202.026 246.468H214.116C218.135 246.468 221.392 243.211 221.392 239.193V223.465C221.392 219.446 218.135 216.189 214.116 216.189Z" fill="#FFC8D5"/>
<path d="M132.587 216.189H120.496C116.478 216.189 113.221 219.446 113.221 223.465V239.193C113.221 243.211 116.478 246.468 120.496 246.468H132.587C136.605 246.468 139.862 243.211 139.862 239.193V223.465C139.862 219.446 136.605 216.189 132.587 216.189Z" fill="#FFC8D5"/>
</g>
<g clip-path="url(#clip1_6823_30416)">
<path d="M258.143 69.2565C254.415 70.9692 238.901 77.316 220.162 71.9766C199.913 66.2342 190.544 50.9211 188.73 47.798C168.783 55.2531 148.735 62.8089 128.788 70.2639C124.153 71.7751 119.318 69.9617 117.706 66.5364C115.993 62.9096 118.411 59.2828 118.612 58.9806C125.463 51.8278 151.052 26.6418 193.163 21.9068C223.185 18.4815 246.759 27.1455 257.136 31.679C257.539 44.272 257.841 56.7642 258.244 69.3573L258.143 69.2565Z" fill="#FFDECC"/>
<path d="M223.486 69.9617H181.476C175.578 69.9617 170.797 65.1806 170.797 59.2828C170.797 53.385 175.578 48.604 181.476 48.604H223.486C229.384 48.604 234.165 53.385 234.165 59.2828C234.165 65.1806 229.384 69.9617 223.486 69.9617Z" fill="#FFDECC"/>
<path d="M212.102 46.1861C201.826 46.992 191.651 47.798 181.375 48.604C175.532 48.604 170.696 53.4397 170.696 59.2828C170.696 65.126 175.532 69.9617 181.375 69.9617H223.486" stroke="white" stroke-width="5.03721" stroke-linecap="round" stroke-linejoin="round"/>
<path d="M256.934 32.0819C257.337 45.1786 257.74 58.2754 258.143 71.2714C254.315 72.984 237.39 80.1368 217.342 74.0922C203.237 69.8609 194.976 61.197 191.853 57.4694" fill="#FFDECC"/>
<path d="M277.888 76.0063H251.292C249.456 76.0063 247.967 74.5178 247.967 72.6817V29.1603C247.967 27.3242 249.456 25.8357 251.292 25.8357H277.888C279.724 25.8357 281.213 27.3242 281.213 29.1603V72.6817C281.213 74.5178 279.724 76.0063 277.888 76.0063Z" fill="#735BF2"/>
</g>
<defs>
<clipPath id="clip0_6823_30416">
<rect width="185.1" height="173.01" fill="white" transform="translate(67 73.4588)"/>
</clipPath>
<clipPath id="clip1_6823_30416">
<rect width="164.213" height="55.51" fill="white" transform="matrix(1 0 0 -1 117 76.51)"/>
</clipPath>
</defs>
</svg>
