<svg width="320" height="320" viewBox="0 0 320 320" fill="none" xmlns="http://www.w3.org/2000/svg">
<g opacity="0.64">
<path d="M98.084 240.581C98.1262 240.286 98.1683 240.033 98.1683 239.738C98.1683 239.443 98.1262 239.19 98.084 238.895V195.772H36.7938V240.623H36.8781C37.9319 247.283 51.2101 252.552 67.4811 252.552C83.7521 252.552 97.0302 247.283 98.084 240.623V240.581Z" fill="#EAB347"/>
<mask id="mask0_6823_30350" style="mask-type:luminance" maskUnits="userSpaceOnUse" x="36" y="195" width="63" height="58">
<path d="M98.084 240.581C98.1262 240.286 98.1683 240.033 98.1683 239.738C98.1683 239.443 98.1262 239.19 98.084 238.895V195.772H36.7938V240.623H36.8781C37.9319 247.283 51.2101 252.552 67.4811 252.552C83.7521 252.552 97.0302 247.283 98.084 240.623V240.581Z" fill="white"/>
</mask>
<g mask="url(#mask0_6823_30350)">
<path d="M100.318 203.613C100.318 211.58 85.6068 218.071 67.5233 218.071C49.4397 218.071 34.6862 211.58 34.6862 203.613" stroke="#DBA464" stroke-width="3.37223" stroke-miterlimit="10" stroke-linecap="round"/>
<path d="M100.318 215.879C100.318 223.846 85.6068 230.338 67.5233 230.338C49.4397 230.338 34.6862 223.846 34.6862 215.879" stroke="#DBA464" stroke-width="3.37223" stroke-miterlimit="10" stroke-linecap="round"/>
<path d="M100.318 227.682C100.318 235.649 85.6068 242.14 67.5233 242.14C49.4397 242.14 34.6862 235.649 34.6862 227.682" stroke="#DBA464" stroke-width="3.37223" stroke-miterlimit="10" stroke-linecap="round"/>
</g>
<mask id="mask1_6823_30350" style="mask-type:luminance" maskUnits="userSpaceOnUse" x="36" y="195" width="63" height="58">
<path d="M98.084 240.581C98.1262 240.286 98.1683 240.033 98.1683 239.738C98.1683 239.443 98.1262 239.19 98.084 238.895V195.772H36.7938V240.623H36.8781C37.9319 247.283 51.2101 252.552 67.4811 252.552C83.7521 252.552 97.0302 247.283 98.084 240.623V240.581Z" fill="white"/>
</mask>
<g mask="url(#mask1_6823_30350)">
<path d="M100.318 203.613C100.318 211.58 85.6068 218.071 67.5233 218.071C49.4397 218.071 34.6862 211.58 34.6862 203.613" stroke="#DBA464" stroke-width="3.37223" stroke-miterlimit="10" stroke-linecap="round"/>
<path d="M100.318 215.879C100.318 223.846 85.6068 230.338 67.5233 230.338C49.4397 230.338 34.6862 223.846 34.6862 215.879" stroke="#DBA464" stroke-width="3.37223" stroke-miterlimit="10" stroke-linecap="round"/>
<path d="M100.318 227.682C100.318 235.649 85.6068 242.14 67.5233 242.14C49.4397 242.14 34.6862 235.649 34.6862 227.682" stroke="#DBA464" stroke-width="3.37223" stroke-miterlimit="10" stroke-linecap="round"/>
</g>
<path d="M98.084 204.581C98.1262 204.286 98.1683 204.033 98.1683 203.738C98.1683 203.443 98.1262 203.19 98.084 202.895V159.772H36.7938V204.623H36.8781C37.9319 211.283 51.2101 216.552 67.4811 216.552C83.7521 216.552 97.0302 211.283 98.084 204.623V204.581Z" fill="#EAB347"/>
<mask id="mask2_6823_30350" style="mask-type:luminance" maskUnits="userSpaceOnUse" x="36" y="159" width="63" height="58">
<path d="M98.084 204.581C98.1262 204.286 98.1683 204.033 98.1683 203.738C98.1683 203.443 98.1262 203.19 98.084 202.895V159.772H36.7938V204.623H36.8781C37.9319 211.283 51.2101 216.552 67.4811 216.552C83.7521 216.552 97.0302 211.283 98.084 204.623V204.581Z" fill="white"/>
</mask>
<g mask="url(#mask2_6823_30350)">
<path d="M100.318 167.613C100.318 175.58 85.6068 182.071 67.5233 182.071C49.4397 182.071 34.6862 175.58 34.6862 167.613" stroke="#DBA464" stroke-width="3.37223" stroke-miterlimit="10" stroke-linecap="round"/>
<path d="M100.318 179.879C100.318 187.846 85.6068 194.338 67.5233 194.338C49.4397 194.338 34.6862 187.846 34.6862 179.879" stroke="#DBA464" stroke-width="3.37223" stroke-miterlimit="10" stroke-linecap="round"/>
<path d="M100.318 191.682C100.318 199.649 85.6068 206.14 67.5233 206.14C49.4397 206.14 34.6862 199.649 34.6862 191.682" stroke="#DBA464" stroke-width="3.37223" stroke-miterlimit="10" stroke-linecap="round"/>
</g>
<mask id="mask3_6823_30350" style="mask-type:luminance" maskUnits="userSpaceOnUse" x="36" y="159" width="63" height="58">
<path d="M98.084 204.581C98.1262 204.286 98.1683 204.033 98.1683 203.738C98.1683 203.443 98.1262 203.19 98.084 202.895V159.772H36.7938V204.623H36.8781C37.9319 211.283 51.2101 216.552 67.4811 216.552C83.7521 216.552 97.0302 211.283 98.084 204.623V204.581Z" fill="white"/>
</mask>
<g mask="url(#mask3_6823_30350)">
<path d="M100.318 167.613C100.318 175.58 85.6068 182.071 67.5233 182.071C49.4397 182.071 34.6862 175.58 34.6862 167.613" stroke="#DBA464" stroke-width="3.37223" stroke-miterlimit="10" stroke-linecap="round"/>
<path d="M100.318 179.879C100.318 187.846 85.6068 194.338 67.5233 194.338C49.4397 194.338 34.6862 187.846 34.6862 179.879" stroke="#DBA464" stroke-width="3.37223" stroke-miterlimit="10" stroke-linecap="round"/>
<path d="M100.318 191.682C100.318 199.649 85.6068 206.14 67.5233 206.14C49.4397 206.14 34.6862 199.649 34.6862 191.682" stroke="#DBA464" stroke-width="3.37223" stroke-miterlimit="10" stroke-linecap="round"/>
</g>
<path d="M67.4811 171.545C84.4292 171.545 98.1683 165.826 98.1683 158.772C98.1683 151.718 84.4292 146 67.4811 146C50.533 146 36.7938 151.718 36.7938 158.772C36.7938 165.826 50.533 171.545 67.4811 171.545Z" fill="#FCC761"/>
</g>
<path d="M293.932 239.477C293.965 239.247 293.998 239.051 293.998 238.822C293.998 238.592 293.965 238.396 293.932 238.167V204.666H245.969V239.509H246.035C246.86 244.683 257.25 248.777 269.984 248.777C282.717 248.777 293.108 244.683 293.932 239.509V239.477Z" fill="#EAB347"/>
<mask id="mask4_6823_30350" style="mask-type:luminance" maskUnits="userSpaceOnUse" x="245" y="204" width="49" height="45">
<path d="M293.932 239.477C293.965 239.247 293.998 239.051 293.998 238.822C293.998 238.592 293.965 238.396 293.932 238.167V204.666H245.969V239.509H246.035C246.86 244.683 257.25 248.777 269.984 248.777C282.717 248.777 293.108 244.683 293.932 239.509V239.477Z" fill="white"/>
</mask>
<g mask="url(#mask4_6823_30350)">
<path d="M295.681 210.757C295.681 216.947 284.168 221.99 270.017 221.99C255.865 221.99 244.32 216.947 244.32 210.757" stroke="#DBA464" stroke-width="3.37223" stroke-miterlimit="10" stroke-linecap="round"/>
<path d="M295.681 220.287C295.681 226.476 284.168 231.519 270.017 231.519C255.865 231.519 244.32 226.476 244.32 220.287" stroke="#DBA464" stroke-width="3.37223" stroke-miterlimit="10" stroke-linecap="round"/>
<path d="M295.681 229.456C295.681 235.645 284.168 240.688 270.017 240.688C255.865 240.688 244.32 235.645 244.32 229.456" stroke="#DBA464" stroke-width="3.37223" stroke-miterlimit="10" stroke-linecap="round"/>
</g>
<mask id="mask5_6823_30350" style="mask-type:luminance" maskUnits="userSpaceOnUse" x="245" y="204" width="49" height="45">
<path d="M293.932 239.477C293.965 239.247 293.998 239.051 293.998 238.822C293.998 238.592 293.965 238.396 293.932 238.167V204.666H245.969V239.509H246.035C246.86 244.683 257.25 248.777 269.984 248.777C282.717 248.777 293.108 244.683 293.932 239.509V239.477Z" fill="white"/>
</mask>
<g mask="url(#mask5_6823_30350)">
<path d="M295.681 210.757C295.681 216.947 284.168 221.99 270.017 221.99C255.865 221.99 244.32 216.947 244.32 210.757" stroke="#DBA464" stroke-width="3.37223" stroke-miterlimit="10" stroke-linecap="round"/>
<path d="M295.681 220.287C295.681 226.476 284.168 231.519 270.017 231.519C255.865 231.519 244.32 226.476 244.32 220.287" stroke="#DBA464" stroke-width="3.37223" stroke-miterlimit="10" stroke-linecap="round"/>
<path d="M295.681 229.456C295.681 235.645 284.168 240.688 270.017 240.688C255.865 240.688 244.32 235.645 244.32 229.456" stroke="#DBA464" stroke-width="3.37223" stroke-miterlimit="10" stroke-linecap="round"/>
</g>
<path d="M293.932 211.509C293.965 211.28 293.998 211.084 293.998 210.854C293.998 210.625 293.965 210.429 293.932 210.199V176.699H245.969V211.542H246.035C246.86 216.716 257.25 220.81 269.984 220.81C282.717 220.81 293.108 216.716 293.932 211.542V211.509Z" fill="#EAB347"/>
<mask id="mask6_6823_30350" style="mask-type:luminance" maskUnits="userSpaceOnUse" x="245" y="176" width="49" height="45">
<path d="M293.932 211.509C293.965 211.28 293.998 211.084 293.998 210.854C293.998 210.625 293.965 210.429 293.932 210.199V176.699H245.969V211.542H246.035C246.86 216.716 257.25 220.81 269.984 220.81C282.717 220.81 293.108 216.716 293.932 211.542V211.509Z" fill="white"/>
</mask>
<g mask="url(#mask6_6823_30350)">
<path d="M295.681 182.79C295.681 188.979 284.168 194.022 270.017 194.022C255.865 194.022 244.32 188.979 244.32 182.79" stroke="#DBA464" stroke-width="3.37223" stroke-miterlimit="10" stroke-linecap="round"/>
<path d="M295.681 192.32C295.681 198.509 284.168 203.552 270.017 203.552C255.865 203.552 244.32 198.509 244.32 192.32" stroke="#DBA464" stroke-width="3.37223" stroke-miterlimit="10" stroke-linecap="round"/>
<path d="M295.681 201.489C295.681 207.678 284.168 212.721 270.017 212.721C255.865 212.721 244.32 207.678 244.32 201.489" stroke="#DBA464" stroke-width="3.37223" stroke-miterlimit="10" stroke-linecap="round"/>
</g>
<mask id="mask7_6823_30350" style="mask-type:luminance" maskUnits="userSpaceOnUse" x="245" y="176" width="49" height="45">
<path d="M293.932 211.509C293.965 211.28 293.998 211.084 293.998 210.854C293.998 210.625 293.965 210.429 293.932 210.199V176.699H245.969V211.542H246.035C246.86 216.716 257.25 220.81 269.984 220.81C282.717 220.81 293.108 216.716 293.932 211.542V211.509Z" fill="white"/>
</mask>
<g mask="url(#mask7_6823_30350)">
<path d="M295.681 182.79C295.681 188.979 284.168 194.022 270.017 194.022C255.865 194.022 244.32 188.979 244.32 182.79" stroke="#DBA464" stroke-width="3.37223" stroke-miterlimit="10" stroke-linecap="round"/>
<path d="M295.681 192.32C295.681 198.509 284.168 203.552 270.017 203.552C255.865 203.552 244.32 198.509 244.32 192.32" stroke="#DBA464" stroke-width="3.37223" stroke-miterlimit="10" stroke-linecap="round"/>
<path d="M295.681 201.489C295.681 207.678 284.168 212.721 270.017 212.721C255.865 212.721 244.32 207.678 244.32 201.489" stroke="#DBA464" stroke-width="3.37223" stroke-miterlimit="10" stroke-linecap="round"/>
</g>
<path d="M269.984 185.845C283.247 185.845 293.998 181.402 293.998 175.922C293.998 170.442 283.247 166 269.984 166C256.721 166 245.969 170.442 245.969 175.922C245.969 181.402 256.721 185.845 269.984 185.845Z" fill="#FCC761"/>
<path d="M57.7618 269.919C57.7966 269.673 57.8315 269.462 57.8315 269.216C57.8315 268.97 57.7966 268.759 57.7618 268.512V232.531H7.13385V269.954H7.20349C8.07398 275.512 19.0422 279.908 32.4827 279.908C45.9231 279.908 56.8913 275.512 57.7618 269.954V269.919Z" fill="#EAB347"/>
<mask id="mask8_6823_30350" style="mask-type:luminance" maskUnits="userSpaceOnUse" x="7" y="232" width="51" height="48">
<path d="M57.7618 269.919C57.7966 269.673 57.8315 269.462 57.8315 269.216C57.8315 268.97 57.7966 268.759 57.7618 268.512V232.531H7.13385V269.954H7.20349C8.07398 275.512 19.0422 279.908 32.4827 279.908C45.9231 279.908 56.8913 275.512 57.7618 269.954V269.919Z" fill="white"/>
</mask>
<g mask="url(#mask8_6823_30350)">
<path d="M59.6073 239.073C59.6073 245.72 47.4552 251.137 32.5175 251.137C17.5798 251.137 5.39288 245.72 5.39288 239.073" stroke="#DBA464" stroke-width="3.37223" stroke-miterlimit="10" stroke-linecap="round"/>
<path d="M59.6073 249.308C59.6073 255.956 47.4552 261.372 32.5175 261.372C17.5798 261.372 5.39288 255.956 5.39288 249.308" stroke="#DBA464" stroke-width="3.37223" stroke-miterlimit="10" stroke-linecap="round"/>
<path d="M59.6073 259.156C59.6073 265.804 47.4552 271.221 32.5175 271.221C17.5798 271.221 5.39288 265.804 5.39288 259.156" stroke="#DBA464" stroke-width="3.37223" stroke-miterlimit="10" stroke-linecap="round"/>
</g>
<mask id="mask9_6823_30350" style="mask-type:luminance" maskUnits="userSpaceOnUse" x="7" y="232" width="51" height="48">
<path d="M57.7618 269.919C57.7966 269.673 57.8315 269.462 57.8315 269.216C57.8315 268.97 57.7966 268.759 57.7618 268.512V232.531H7.13385V269.954H7.20349C8.07398 275.512 19.0422 279.908 32.4827 279.908C45.9231 279.908 56.8913 275.512 57.7618 269.954V269.919Z" fill="white"/>
</mask>
<g mask="url(#mask9_6823_30350)">
<path d="M59.6073 239.073C59.6073 245.72 47.4552 251.137 32.5175 251.137C17.5798 251.137 5.39288 245.72 5.39288 239.073" stroke="#DBA464" stroke-width="3.37223" stroke-miterlimit="10" stroke-linecap="round"/>
<path d="M59.6073 249.308C59.6073 255.956 47.4552 261.372 32.5175 261.372C17.5798 261.372 5.39288 255.956 5.39288 249.308" stroke="#DBA464" stroke-width="3.37223" stroke-miterlimit="10" stroke-linecap="round"/>
<path d="M59.6073 259.156C59.6073 265.804 47.4552 271.221 32.5175 271.221C17.5798 271.221 5.39288 265.804 5.39288 259.156" stroke="#DBA464" stroke-width="3.37223" stroke-miterlimit="10" stroke-linecap="round"/>
</g>
<path d="M57.7618 239.88C57.7966 239.634 57.8315 239.423 57.8315 239.177C57.8315 238.931 57.7966 238.72 57.7618 238.474V202.492H7.13385V239.916H7.20349C8.07398 245.473 19.0422 249.87 32.4827 249.87C45.9231 249.87 56.8913 245.473 57.7618 239.916V239.88Z" fill="#EAB347"/>
<mask id="mask10_6823_30350" style="mask-type:luminance" maskUnits="userSpaceOnUse" x="7" y="202" width="51" height="48">
<path d="M57.7618 239.88C57.7966 239.634 57.8315 239.423 57.8315 239.177C57.8315 238.931 57.7966 238.72 57.7618 238.474V202.492H7.13385V239.916H7.20349C8.07398 245.473 19.0422 249.87 32.4827 249.87C45.9231 249.87 56.8913 245.473 57.7618 239.916V239.88Z" fill="white"/>
</mask>
<g mask="url(#mask10_6823_30350)">
<path d="M59.6073 209.034C59.6073 215.682 47.4552 221.098 32.5175 221.098C17.5798 221.098 5.39288 215.682 5.39288 209.034" stroke="#DBA464" stroke-width="3.37223" stroke-miterlimit="10" stroke-linecap="round"/>
<path d="M59.6073 219.269C59.6073 225.917 47.4552 231.333 32.5175 231.333C17.5798 231.333 5.39288 225.917 5.39288 219.269" stroke="#DBA464" stroke-width="3.37223" stroke-miterlimit="10" stroke-linecap="round"/>
<path d="M59.6073 229.118C59.6073 235.765 47.4552 241.182 32.5175 241.182C17.5798 241.182 5.39288 235.765 5.39288 229.118" stroke="#DBA464" stroke-width="3.37223" stroke-miterlimit="10" stroke-linecap="round"/>
</g>
<mask id="mask11_6823_30350" style="mask-type:luminance" maskUnits="userSpaceOnUse" x="7" y="202" width="51" height="48">
<path d="M57.7618 239.88C57.7966 239.634 57.8315 239.423 57.8315 239.177C57.8315 238.931 57.7966 238.72 57.7618 238.474V202.492H7.13385V239.916H7.20349C8.07398 245.473 19.0422 249.87 32.4827 249.87C45.9231 249.87 56.8913 245.473 57.7618 239.916V239.88Z" fill="white"/>
</mask>
<g mask="url(#mask11_6823_30350)">
<path d="M59.6073 209.034C59.6073 215.682 47.4552 221.098 32.5175 221.098C17.5798 221.098 5.39288 215.682 5.39288 209.034" stroke="#DBA464" stroke-width="3.37223" stroke-miterlimit="10" stroke-linecap="round"/>
<path d="M59.6073 219.269C59.6073 225.917 47.4552 231.333 32.5175 231.333C17.5798 231.333 5.39288 225.917 5.39288 219.269" stroke="#DBA464" stroke-width="3.37223" stroke-miterlimit="10" stroke-linecap="round"/>
<path d="M59.6073 229.118C59.6073 235.765 47.4552 241.182 32.5175 241.182C17.5798 241.182 5.39288 235.765 5.39288 229.118" stroke="#DBA464" stroke-width="3.37223" stroke-miterlimit="10" stroke-linecap="round"/>
</g>
<path d="M32.4827 212.315C46.4824 212.315 57.8315 207.543 57.8315 201.657C57.8315 195.771 46.4824 191 32.4827 191C18.4829 191 7.13385 195.771 7.13385 201.657C7.13385 207.543 18.4829 212.315 32.4827 212.315Z" fill="#FCC761"/>
<path d="M102.64 120.759C96.6266 120.759 91.7867 115.919 91.7867 109.906V60.9198C91.7867 56.5198 95.3066 52.9999 99.7066 52.9999H105.28C109.68 52.9999 113.2 56.5198 113.2 60.9198L113.2 109.906C113.2 115.919 108.36 120.759 102.347 120.759H102.64Z" fill="#7D7D7D"/>
<path d="M216.305 121.932C210.291 121.932 205.451 117.092 205.451 111.079V62.0931C205.451 57.6932 208.971 54.1732 213.371 54.1732H218.945C223.344 54.1732 226.864 57.6932 226.864 62.0931V111.079C226.864 117.092 222.025 121.932 216.011 121.932H216.305Z" fill="#7D7D7D"/>
<path d="M79.3198 267.57H239.771C246.575 267.57 252.09 262.054 252.09 255.25L252.09 98.3194C252.09 91.5153 246.575 85.9995 239.771 85.9995L79.3198 85.9995C72.5157 85.9995 67 91.5153 67 98.3194L67 255.25C67 262.054 72.5157 267.57 79.3198 267.57Z" fill="#E8E8FF"/>
<path d="M240.944 85.9995H77.9998C71.9866 85.9995 67 91.5728 67 98.6126V133.665H252.09V98.6126C252.09 91.7194 247.104 85.9995 241.091 85.9995H240.944Z" fill="#735BF2"/>
<path d="M210.891 237.797H198.094V167.069H197.633L177.746 180.096V167.934L198.44 154.33H210.891V237.797Z" fill="#735BF2"/>
<path d="M138.974 238.95C133.287 238.95 128.195 237.99 123.699 236.068C119.241 234.147 115.706 231.437 113.093 227.94C110.48 224.443 109.115 220.447 109 215.951H121.797C121.95 218.372 122.796 220.485 124.333 222.291C125.909 224.098 127.945 225.5 130.443 226.499C132.98 227.498 135.804 227.998 138.917 227.998C142.26 227.998 145.258 227.441 147.909 226.326C150.599 225.174 152.674 223.579 154.135 221.542C155.595 219.467 156.325 217.103 156.325 214.452C156.287 211.685 155.537 209.226 154.077 207.074C152.655 204.883 150.503 203.192 147.621 202.001C144.777 200.81 141.415 200.214 137.533 200.214H130.386V189.896H137.533C140.685 189.896 143.49 189.339 145.949 188.224C148.409 187.11 150.292 185.553 151.598 183.555C152.943 181.557 153.616 179.251 153.616 176.638C153.616 174.102 153.02 171.854 151.829 169.894C150.676 167.934 149.004 166.435 146.814 165.398C144.623 164.322 142.087 163.784 139.205 163.784C136.361 163.784 133.729 164.283 131.308 165.282C128.887 166.281 126.908 167.723 125.371 169.606C123.872 171.45 123.065 173.602 122.95 176.062H110.729C110.845 171.604 112.19 167.626 114.764 164.129C117.377 160.632 120.817 157.942 125.082 156.059C129.386 154.138 134.113 153.177 139.263 153.177C144.604 153.177 149.293 154.196 153.328 156.232C157.401 158.269 160.514 161.036 162.666 164.533C164.856 167.992 165.932 171.777 165.894 175.889C165.932 179.001 165.356 181.826 164.164 184.362C162.973 186.898 161.244 189.031 158.977 190.761C156.748 192.451 154.135 193.662 151.137 194.392V195.026C154.865 195.526 158.074 196.679 160.764 198.485C163.492 200.252 165.567 202.539 166.989 205.344C168.411 208.15 169.103 211.32 169.064 214.855C169.103 219.428 167.815 223.54 165.202 227.191C162.627 230.842 159.034 233.724 154.423 235.837C149.85 237.913 144.7 238.95 138.974 238.95Z" fill="#735BF2"/>
<g clip-path="url(#clip0_6823_30350)">
<path d="M294.301 290.775C294.36 290.361 294.419 290.007 294.419 289.593C294.419 289.179 294.36 288.824 294.301 288.41V227.917H208.322V290.835H208.44C209.919 300.177 228.546 307.569 251.371 307.569C274.196 307.569 292.823 300.177 294.301 290.835V290.775Z" fill="#FFAB07"/>
<mask id="mask12_6823_30350" style="mask-type:luminance" maskUnits="userSpaceOnUse" x="208" y="227" width="87" height="81">
<path d="M294.301 290.775C294.36 290.361 294.419 290.007 294.419 289.593C294.419 289.179 294.36 288.824 294.301 288.41V227.917H208.322V290.835H208.44C209.919 300.177 228.546 307.569 251.371 307.569C274.196 307.569 292.823 300.177 294.301 290.835V290.775Z" fill="white"/>
</mask>
<g mask="url(#mask12_6823_30350)">
<path d="M297.435 238.916C297.435 250.092 276.798 259.199 251.43 259.199C226.062 259.199 205.365 250.092 205.365 238.916" stroke="#E5820E" stroke-width="4.73062" stroke-miterlimit="10" stroke-linecap="round"/>
<path d="M297.435 256.124C297.435 267.3 276.798 276.406 251.43 276.406C226.062 276.406 205.365 267.3 205.365 256.124" stroke="#E5820E" stroke-width="4.73062" stroke-miterlimit="10" stroke-linecap="round"/>
<path d="M297.435 272.681C297.435 283.857 276.798 292.963 251.43 292.963C226.062 292.963 205.365 283.857 205.365 272.681" stroke="#E5820E" stroke-width="4.73062" stroke-miterlimit="10" stroke-linecap="round"/>
</g>
<path d="M251.371 245.834C275.146 245.834 294.419 237.813 294.419 227.917C294.419 218.022 275.146 210 251.371 210C227.596 210 208.322 218.022 208.322 227.917C208.322 237.813 227.596 245.834 251.371 245.834Z" fill="#FFD600"/>
<path d="M257.166 220.289C249.242 224.487 241.259 228.745 233.335 232.943C235.7 228.095 238.007 223.305 240.372 218.456" stroke="white" stroke-width="4.1393" stroke-linecap="round" stroke-linejoin="round"/>
<path d="M273.959 222.122C266.036 226.321 258.053 230.578 250.129 234.777C252.494 229.928 254.8 225.138 257.166 220.289" stroke="white" stroke-width="4.1393" stroke-linecap="round" stroke-linejoin="round"/>
<path d="M229.787 224.901L236.588 225.67" stroke="white" stroke-width="4.1393" stroke-linecap="round" stroke-linejoin="round"/>
<path d="M262.843 228.509L272.718 229.277" stroke="white" stroke-width="4.1393" stroke-linecap="round" stroke-linejoin="round"/>
</g>
<defs>
<clipPath id="clip0_6823_30350">
<rect width="96.8004" height="97.51" fill="white" transform="translate(203 210)"/>
</clipPath>
</defs>
</svg>
