<svg width="323" height="320" viewBox="0 0 323 320" fill="none" xmlns="http://www.w3.org/2000/svg">
<g opacity="0.6">
<path d="M39.0217 54.5489C36.6782 55.3593 34.1396 54.1253 33.3292 51.7817L26.7275 32.6904C26.1345 30.9756 27.032 29.1294 28.7468 28.5364L30.9188 27.7853C32.6336 27.1923 34.4798 28.0898 35.0728 29.8046L41.6745 48.896C42.4849 51.2395 41.2509 53.778 38.9074 54.5884L39.0217 54.5489Z" fill="#A7A7A7"/>
<path d="M83.4786 39.6878C81.1351 40.4982 78.5965 39.2642 77.7861 36.9207L71.1844 17.8293C70.5914 16.1145 71.4889 14.2683 73.2037 13.6753L75.3758 12.9243C77.0905 12.3313 78.9368 13.2287 79.5297 14.9435L86.1315 34.0349C86.9418 36.3784 85.7078 38.917 83.3643 39.7274L83.4786 39.6878Z" fill="#A7A7A7"/>
<path d="M112.083 92.7981L49.5503 114.422C47.1675 115.246 44.5679 113.982 43.7439 111.599L22.5946 50.4383C21.7707 48.0555 23.0344 45.4558 25.4172 44.6319L87.9499 23.0082C90.3327 22.1843 92.9323 23.448 93.7563 25.8308L114.906 86.9917C115.73 89.3745 114.466 91.9741 112.083 92.7981Z" fill="white" stroke="#FFE1E8" stroke-width="1.03053"/>
<path d="M88.2387 22.3631L24.7342 44.3228C22.3907 45.1332 21.1984 47.9773 22.1471 50.7209L26.8711 64.3821L99.0067 39.4379L94.2827 25.7767C93.3537 23.0902 90.6395 21.533 88.2959 22.3434L88.2387 22.3631Z" fill="#FF87A4"/>
<path d="M96.9834 85.5738L91.9961 87.2984L82.4642 59.7334L82.2845 59.7955L76.2896 67.5528L74.6505 62.8126L80.8822 54.7219L85.7347 53.0439L96.9834 85.5738Z" fill="#9F9F9F"/>
<path d="M69.1108 95.7151C66.8942 96.4816 64.7803 96.7934 62.7691 96.6505C60.7728 96.5024 59.0298 95.923 57.5401 94.9123C56.0504 93.9015 54.9801 92.5278 54.3292 90.791L59.3165 89.0664C59.7027 89.9893 60.3171 90.699 61.1595 91.1958C62.017 91.6874 62.9998 91.9596 64.108 92.0123C65.2311 92.0599 66.3992 91.874 67.6124 91.4545C68.9153 91.0039 70.0084 90.3828 70.8917 89.5911C71.7847 88.7792 72.3785 87.878 72.6731 86.8875C72.9626 85.8819 72.9287 84.8624 72.5713 83.829C72.1834 82.7559 71.5599 81.8983 70.7008 81.2564C69.8515 80.5944 68.7849 80.2254 67.5011 80.1495C66.2322 80.0685 64.8415 80.2895 63.3288 80.8126L60.5431 81.7759L59.1525 77.7546L61.9382 76.7913C63.1663 76.3666 64.1846 75.7714 64.9929 75.0056C65.8012 74.2398 66.3254 73.3795 66.5653 72.4246C66.8201 71.4645 66.7715 70.4753 66.4193 69.4569C66.0775 68.4684 65.5424 67.6725 64.814 67.0692C64.1006 66.4608 63.2471 66.102 62.2536 65.9928C61.2549 65.8686 60.1939 66.0008 59.0706 66.3892C57.9623 66.7725 57.0037 67.3219 56.1949 68.0376C55.386 68.7533 54.8089 69.5816 54.4636 70.5226C54.128 71.4435 54.1036 72.391 54.3901 73.365L49.6274 75.0119C49.0716 73.2591 49.0598 71.5277 49.5919 69.8178C50.1391 68.1028 51.117 66.5909 52.5256 65.2821C53.9441 63.9532 55.6568 62.9418 57.6637 62.2478C59.7455 61.5279 61.7099 61.293 63.557 61.543C65.419 61.7878 67.005 62.4466 68.315 63.5195C69.6348 64.5722 70.5643 65.9024 71.1035 67.5101C71.5379 68.7181 71.6939 69.8966 71.5715 71.0456C71.449 72.1946 71.0625 73.2589 70.4119 74.2384C69.7711 75.1978 68.9158 76.0217 67.846 76.7102L67.9315 76.9574C69.4515 76.6497 70.8575 76.6666 72.1493 77.008C73.4509 77.3292 74.5678 77.9406 75.5 78.8423C76.4322 79.744 77.129 80.8864 77.5905 82.2695C78.2218 84.0465 78.2742 85.8226 77.7478 87.5975C77.2363 89.3673 76.2244 90.9748 74.712 92.42C73.2095 93.8451 71.3424 94.9434 69.1108 95.7151Z" fill="#9F9F9F"/>
</g>
<g opacity="0.6" clip-path="url(#clip0_6823_30494)">
<path d="M296.459 189.409L262.887 162.222C261.443 161.053 259.325 161.275 258.156 162.719L229.474 198.137C228.305 199.581 228.528 201.699 229.972 202.868L263.544 230.055C264.988 231.224 267.106 231.002 268.275 229.558L296.957 194.14C298.126 192.696 297.903 190.578 296.459 189.409Z" fill="#7DFFC8"/>
<path d="M300.987 202.294L268.644 176.103C267.37 175.072 265.501 175.268 264.47 176.542L241.267 205.194C240.236 206.468 240.432 208.337 241.706 209.368L274.049 235.559C275.322 236.591 277.191 236.395 278.223 235.121L301.425 206.469C302.457 205.195 302.26 203.326 300.987 202.294Z" fill="#00E887"/>
<path d="M232.11 191.94L302.974 215.021C304.48 215.511 305.325 217.174 304.835 218.679L285.124 279.196C284.634 280.701 282.972 281.547 281.466 281.057L210.602 257.976C207.529 256.975 205.837 253.649 206.838 250.577L224.711 195.703C225.711 192.631 229.037 190.939 232.11 191.94Z" fill="#CBA87F"/>
<path d="M297.311 234.54L268.84 225.267C265.134 224.06 261.151 226.086 259.944 229.792L256.533 240.265C255.326 243.971 257.352 247.954 261.057 249.161L289.529 258.434C293.235 259.641 297.217 257.615 298.424 253.909L301.836 243.436C303.043 239.73 301.017 235.747 297.311 234.54Z" fill="#E8C69E"/>
<path d="M266.943 243.655C269.817 244.592 272.907 243.02 273.843 240.146C274.779 237.271 273.208 234.182 270.333 233.245C267.459 232.309 264.369 233.88 263.433 236.755C262.497 239.63 264.068 242.719 266.943 243.655Z" fill="#FFA800"/>
</g>
<g clip-path="url(#clip1_6823_30494)">
<rect x="67.45" y="67.45" width="185.1" height="185.1" rx="33.6545" fill="#735BF2"/>
<path d="M150.424 116.546C150.385 116.42 150.188 115.812 149.564 115.482C148.717 115.033 147.867 115.515 147.812 115.544C142.102 118.566 133.371 124.143 125.738 133.861C123.045 137.287 120.174 140.94 118.07 146.517C117.391 148.318 110.431 167.714 122.208 183.271C127.474 190.228 134.205 193.399 137.664 194.712C152.557 200.353 165.909 193.874 168.333 192.643C157.261 190.389 148.898 186.529 145.309 182.847C144.627 182.149 143.425 180.794 142.565 179.682C140.218 176.65 138.682 173.702 137.67 171.319C137.392 170.666 137.573 169.926 138.113 169.454C145.471 163.05 151.339 157.528 158.822 151.049C159.336 150.603 159.53 149.905 159.304 149.275C158.247 146.313 156.563 141.91 155.341 138.568C154.917 137.41 153.385 137.061 152.47 137.905C145.093 144.72 139.461 150.497 132.081 157.311C133.791 153.164 136.639 147.555 141.404 141.749C145.516 136.735 149.803 133.101 153.291 130.576C153.857 130.169 154.099 129.467 153.912 128.811L150.42 116.543L150.424 116.546Z" fill="white"/>
<path d="M144.466 171.329C150.129 166.541 155.797 161.753 161.46 156.965C161.519 156.92 162.372 156.28 163.394 156.59C163.985 156.768 164.338 157.224 164.512 157.467C165.337 158.608 167.286 161.934 169.74 166.48C169.946 166.783 170.257 167.346 170.124 167.947C170.001 168.503 169.559 168.833 169.374 168.972C168.434 169.686 166.727 171.138 164.444 173.094C165.812 175.14 167.202 176.744 168.356 177.933C170.173 179.808 172.691 182.385 176.451 183.823C177.896 184.376 180.456 185.117 183.915 184.855C183.026 185.705 181.455 186.995 179.17 187.897C176.086 189.116 173.435 188.947 172.597 188.87C169.588 188.592 167.525 187.383 165.537 186.193C163.484 184.961 160.18 182.608 157.138 178.405C155.971 179.055 155.127 179.702 154.565 180.177C154.5 180.232 153.585 181.095 152.25 181.797C151.701 182.084 151.4 182.175 151.067 182.162C150.459 182.136 150.02 181.777 149.8 181.593C147.999 180.07 144.792 176.614 144.158 174.174C144.042 173.721 144.026 173.365 144.023 173.262C144.007 172.431 144.259 171.752 144.459 171.329H144.466Z" fill="white"/>
<path d="M231.611 119.743C231.786 125.103 231.417 138.131 222.56 151.379C216.744 160.078 209.59 165.393 205.048 168.251C204.902 163.24 205.387 155.905 208.539 147.697C214.571 131.995 226.52 123.111 231.611 119.743Z" fill="#FF87A4"/>
<path d="M223.509 166.075C223.509 166.075 223.247 165.82 222.892 165.626C218.068 163.017 204.245 173.048 204.245 173.048C196.806 178.447 193.835 181.56 189.762 184.854C185.66 188.168 173.676 197.857 157.166 200.249C151.964 201.002 140.65 202.554 129.458 196.389C127.104 195.092 120.984 191.54 116.51 184.001C113.526 178.971 112.437 174.115 112.026 170.779C111.968 170.3 111.305 170.229 111.144 170.682C109.511 175.169 106.673 181.23 101.669 187.289C97.3398 192.529 92.8042 196.056 89.3483 198.325C88.8473 199.78 88.2524 202.315 89.3807 204.62C89.3807 204.62 89.594 206.061 90.6803 206.381C99.1178 208.877 109.631 211.454 121.857 213.27C127.851 214.159 144.338 216.361 165.936 215.491C180.329 214.913 199.684 212.86 221.99 206.705C222.627 206.53 223.118 206.016 223.27 205.366C224.405 200.533 226.503 196.832 225.75 185.814C225.368 180.228 224.195 179.126 223.674 173.164C223.422 170.271 223.438 167.824 223.512 166.075H223.509Z" fill="white"/>
<path d="M212.44 115C209.123 108.399 202.176 106.049 198.293 104.736C198.293 104.736 184.315 99.1821 155.999 112.049C155.566 112.246 155.362 112.576 155.362 112.576C155.052 113.08 155.207 113.694 155.258 113.901C162.274 141.913 171.781 155.75 171.781 155.75C175.929 161.785 181.8 169.579 189.701 178.04C189.765 178.101 190.224 178.531 190.916 178.466C191.621 178.398 191.993 177.868 192.041 177.797C194.779 175.618 197.517 173.439 200.256 171.26C200.624 170.966 201.329 170.371 201.41 169.492C201.465 168.926 201.242 168.448 201.074 168.17C199.082 166.149 196.864 163.583 194.731 160.411C191.831 156.099 189.979 152.003 188.782 148.712C187.683 148.954 186.393 149.148 184.948 149.2C181.809 149.31 179.204 148.702 177.403 148.104C182.155 148.204 193.848 147.761 203.812 139.705C207.196 136.97 213.572 131.814 214.157 123.761C214.25 122.491 214.364 118.837 212.434 115H212.44ZM195.765 125.138C195.022 128.287 189.659 131.445 182.168 133.091C181.085 130.647 180.028 127.841 179.142 124.686C178.696 123.095 178.337 121.563 178.046 120.108C184.056 117.27 189.688 116.697 192.701 118.543C193.46 119.009 195.044 119.975 195.691 121.854C195.691 121.854 196.195 123.318 195.765 125.138Z" fill="white"/>
</g>
<defs>
<clipPath id="clip0_6823_30494">
<rect width="88.0493" height="107.506" fill="white" transform="translate(238.293 154) rotate(18.0405)"/>
</clipPath>
<clipPath id="clip1_6823_30494">
<rect x="67.45" y="67.45" width="185.1" height="185.1" rx="33.6545" fill="white"/>
</clipPath>
</defs>
</svg>
