<svg width="24" height="24" viewBox="0 0 24 24" fill="none" xmlns="http://www.w3.org/2000/svg">
<g id="ic">
<path id="goforward" d="M20 11.1999C20 12.1789 19.8374 13.1103 19.5123 13.994C19.1872 14.8831 18.7357 15.6848 18.1577 16.3992C17.5746 17.1189 16.896 17.7222 16.1219 18.2091C15.3427 18.6959 14.499 19.0373 13.5907 19.2331V20.392C13.5907 20.699 13.4978 20.8895 13.312 20.9636C13.1263 21.0429 12.9121 20.9927 12.6696 20.8127L10.0764 18.9156C9.88034 18.7727 9.78229 18.6033 9.78229 18.4075C9.78229 18.2117 9.88034 18.045 10.0764 17.9074L12.6773 16.0103C12.9147 15.8356 13.1263 15.7854 13.312 15.8595C13.4978 15.9388 13.5907 16.1293 13.5907 16.431V17.5661C14.2822 17.3862 14.9221 17.0978 15.5104 16.7009C16.0987 16.3093 16.6096 15.8304 17.0431 15.2641C17.4765 14.7032 17.8145 14.0787 18.0571 13.3908C18.2945 12.7028 18.4132 11.9725 18.4132 11.1999C18.4132 10.2844 18.248 9.42708 17.9178 8.628C17.5875 7.8342 17.1308 7.13566 16.5477 6.53238C15.9594 5.93439 15.2782 5.46605 14.5041 5.12737C13.7249 4.78868 12.8915 4.61934 12.0039 4.61934C11.1111 4.61934 10.2777 4.78868 9.50363 5.12737C8.7244 5.46605 8.04322 5.93439 7.46009 6.53238C6.87179 7.13566 6.41251 7.8342 6.08224 8.628C5.75197 9.42708 5.58684 10.2844 5.58684 11.1999C5.58684 11.909 5.69005 12.5837 5.89647 13.2241C6.10289 13.8644 6.39445 14.4518 6.77117 14.9863C7.14788 15.5208 7.5891 15.9865 8.09482 16.3834C8.27544 16.5421 8.38897 16.7273 8.43541 16.939C8.48186 17.156 8.43799 17.3624 8.30382 17.5582C8.17481 17.7381 7.99935 17.8386 7.77745 17.8598C7.55555 17.8863 7.3414 17.8148 7.13498 17.6455C6.5054 17.1639 5.95581 16.5845 5.48621 15.9071C5.01661 15.2297 4.6528 14.4888 4.39477 13.6845C4.13159 12.8854 4 12.0572 4 11.1999C4 10.078 4.209 9.0196 4.627 8.02471C5.04499 7.03512 5.62296 6.16459 6.36091 5.41313C7.09885 4.66167 7.95033 4.07162 8.91534 3.64297C9.88034 3.21432 10.9099 3 12.0039 3C13.0979 3 14.1274 3.21432 15.0924 3.64297C16.0574 4.07162 16.9089 4.66167 17.6468 5.41313C18.3796 6.16459 18.955 7.03512 19.373 8.02471C19.791 9.0196 20 10.078 20 11.1999Z" fill="white"/>
</g>
</svg>
