<svg width="21" height="21" viewBox="0 0 21 21" fill="none" xmlns="http://www.w3.org/2000/svg">
<g id="ic">
<path id="Vector" d="M11.026 2.03516C11.3938 2.03516 11.7257 2.25574 11.8682 2.59485L12.5516 4.22132C12.6295 4.40659 12.7888 4.54396 12.9697 4.63158C13.1555 4.72159 13.3689 4.738 13.5593 4.65803L15.1707 3.98097C15.5129 3.83718 15.9081 3.91475 16.1706 4.17722L16.8023 4.80893C17.0647 5.07141 17.1423 5.46661 16.9985 5.80883L16.3252 7.41131C16.2424 7.60834 16.2534 7.83304 16.3442 8.02649C16.4276 8.20403 16.5674 8.34772 16.7482 8.42369L18.3846 9.11127C18.7237 9.25375 18.9443 9.5857 18.9443 9.95353L18.9443 10.8223C18.9443 11.1902 18.7237 11.5221 18.3846 11.6646L16.7482 12.3522C16.5674 12.4281 16.4276 12.5718 16.3442 12.7494C16.2534 12.9428 16.2424 13.1675 16.3252 13.3645L16.9985 14.967C17.1423 15.3092 17.0647 15.7044 16.8023 15.9669L16.1706 16.5986C15.9081 16.8611 15.5129 16.9387 15.1707 16.7949L13.5591 16.1178C13.3668 16.037 13.1568 16.0377 12.9693 16.1288C12.7872 16.2173 12.6304 16.367 12.552 16.5536L11.8682 18.181C11.7257 18.5201 11.3938 18.7407 11.026 18.7407L10.1572 18.7407C9.78934 18.7407 9.45739 18.5201 9.31491 18.181L8.62051 16.5283C8.54861 16.3572 8.41685 16.2229 8.24711 16.1478C8.04255 16.0572 7.80492 16.0418 7.59868 16.1284L6.01247 16.7949C5.67025 16.9387 5.27505 16.8611 5.01257 16.5986L4.38086 15.9669C4.11839 15.7044 4.04082 15.3092 4.18461 14.967L4.8584 13.3634C4.94132 13.166 4.93848 12.9431 4.84686 12.7497C4.76228 12.5711 4.61612 12.4283 4.43395 12.3518L2.79849 11.6646C2.45938 11.5221 2.2388 11.1901 2.2388 10.8223L2.2388 9.95352C2.2388 9.5857 2.45938 9.25375 2.79849 9.11127L4.43107 8.42531C4.61314 8.34881 4.74844 8.20239 4.83244 8.02366C4.92191 7.83329 4.94076 7.60847 4.85928 7.41455L4.18461 5.80882C4.04082 5.46661 4.11839 5.07141 4.38086 4.80893L5.01257 4.17722C5.27505 3.91474 5.67025 3.83718 6.01247 3.98096L7.6161 4.65476C7.81344 4.73768 8.03635 4.73484 8.2298 4.64322C8.40838 4.55864 8.5512 4.41248 8.62774 4.23031L9.31491 2.59485C9.45739 2.25574 9.78934 2.03516 10.1572 2.03516L11.026 2.03516ZM10.5916 7.24262C8.86269 7.24262 7.46709 8.63822 7.46709 10.3671C7.46709 12.096 8.86269 13.4916 10.5916 13.4916C12.3204 13.4916 13.716 12.096 13.716 10.3671C13.716 8.63822 12.3204 7.24262 10.5916 7.24262Z" fill="#8C919C"/>
</g>
</svg>
