<svg xmlns="http://www.w3.org/2000/svg"><symbol id="food" viewBox="0 0 17 16"><path fill="#fff" d="M5.734 7.154a.811.811 0 0 0-.81.81v6.946a.811.811 0 0 0 1.621 0V7.965a.811.811 0 0 0-.81-.811z"/><path fill="#fff" d="M5.734 8.234c1.363 0 2.468-1.58 2.468-3.53 0-1.948-1.105-3.528-2.468-3.528s-2.468 1.58-2.468 3.529c0 1.949 1.105 3.529 2.468 3.529z"/><path fill="#fff" d="M5.734 8.234c1.363 0 2.468-1.483 2.468-3.311 0-1.828-1.105-3.31-2.468-3.31s-2.468 1.482-2.468 3.31 1.105 3.31 2.468 3.31z"/><path fill="#F3F3F3" d="M11.69 7.154a.811.811 0 0 0-.81.81v6.946a.811.811 0 1 0 1.622 0V7.965a.811.811 0 0 0-.811-.811z"/><path fill="#F3F3F3" d="M11.744 8.234h-.107a2.452 2.452 0 0 1-2.444-2.445l.247-4.613h4.501l.247 4.613c0 1.345-1.1 2.445-2.444 2.445z"/><path fill="#A7A7A7" d="M12.942.635a.356.356 0 1 0-.712 0v4.639a.356.356 0 1 0 .712 0V.635zM10.796.28a.356.356 0 0 0-.357.355v4.639a.356.356 0 0 0 .713 0V.635a.356.356 0 0 0-.356-.356z"/><path fill="#fff" d="M5.734 8.234c1.363 0 2.468-1.58 2.468-3.53 0-1.948-1.105-3.528-2.468-3.528s-2.468 1.58-2.468 3.529c0 1.949 1.105 3.529 2.468 3.529z"/></symbol><symbol id="financial-income" viewBox="0 0 17 16"><g clip-path="url(#a)"><path fill="#E9E9E9" d="M7.144 6.216a2.313 2.313 0 0 0-2.313-2.312v4.625a2.313 2.313 0 0 0 2.313-2.313z"/><path fill="#F3F3F3" d="M4.675 8.664h-3.11a.525.525 0 0 0-.526.525v1.319c0 .29.235.524.525.524h3.111c.29 0 .525-.235.525-.524v-1.32a.525.525 0 0 0-.525-.524z"/><path fill="#E9E9E9" d="M12.003 5.436H6.28a4.412 4.412 0 0 0 0 8.824h5.724a4.412 4.412 0 1 0 0-8.824z"/><path fill="#A7A7A7" d="M3.854 8.874a.564.564 0 1 0 0-1.128.564.564 0 0 0 0 1.128z"/><path fill="#F3F3F3" d="M11.977 6.238H6.963a.444.444 0 0 0-.444.443v.106c0 .245.199.444.444.444h5.014a.444.444 0 0 0 .443-.444v-.106a.444.444 0 0 0-.443-.443z"/><path fill="#fff" d="M9.616 6.222a3.26 3.26 0 1 0 0-6.518 3.26 3.26 0 0 0 0 6.518z"/><path fill="#E9E9E9" d="M13.26 12.672h-.997a.608.608 0 0 0-.608.607v1.302c0 .335.272.608.608.608h.997a.608.608 0 0 0 .608-.608v-1.302a.608.608 0 0 0-.608-.607zm-6.774 0H5.49a.608.608 0 0 0-.607.607v1.302c0 .335.272.608.607.608h.997a.608.608 0 0 0 .608-.608v-1.302a.608.608 0 0 0-.608-.607z"/></g><defs><clipPath id="a"><path fill="#fff" d="M0 0h16v16H0z" transform="translate(.727)"/></clipPath></defs></symbol><symbol id="other-income" viewBox="0 0 16 16"><g clip-path="url(#a)"><path fill="#fff" d="M3.655 9.217a1.217 1.217 0 1 0 0-2.434 1.217 1.217 0 0 0 0 2.434z"/><path fill="#F3F3F3" d="M8.894 9.217a1.217 1.217 0 1 0 0-2.434 1.217 1.217 0 0 0 0 2.434z"/><path fill="#E9E9E9" d="M14.133 9.217a1.217 1.217 0 1 0 0-2.434 1.217 1.217 0 0 0 0 2.434z"/></g><defs><clipPath id="a"><path fill="#fff" d="M0 0h14.67v16H0z" transform="translate(.894)"/></clipPath></defs></symbol><symbol id="loan" viewBox="0 0 17 16"><g clip-path="url(#a)"><g clip-path="url(#b)"><path fill="#E9E9E9" d="M14.067 10.381c-.33-.147-1.696-.71-3.355-.238a4.766 4.766 0 0 0-2.774 2.13l-5.29-1.981c-.412-.136-.833.03-.978.331-.152.316.066.644.081.666.605.634 2.865 2.85 6.575 3.275a11.014 11.014 0 0 0 5.644-.86l.097-3.323z"/><path fill="#fff" d="M8.608 10.02a4.565 4.565 0 1 0 0-9.131 4.565 4.565 0 0 0 0 9.13z"/><path stroke="#fff" stroke-linecap="round" stroke-linejoin="round" stroke-width=".62" d="M8.612 4.16L7.69 6.874 6.765 4.16m3.694 0l-.923 2.713-.924-2.712M6.446 5.517h.751m2.886 0h.752"/><path fill="#E9E9E9" d="M11.012 10.318H7.3a.94.94 0 0 0 0 1.88h3.712a.94.94 0 0 0 0-1.88z"/><path stroke="#A6A6A6" stroke-linecap="round" stroke-linejoin="round" stroke-width=".44" d="M10.01 12.412l-2.71-.214a.943.943 0 0 1-.94-.94c0-.517.423-.94.94-.94h3.712"/><path fill="#E9E9E9" d="M13.963 13.658l.104-3.461c-.334-.15-1.835-.783-3.599-.248a4.781 4.781 0 0 0-2.252 1.468"/><path fill="#fff" d="M15.818 9.782h-2.353a.292.292 0 0 0-.292.292v3.843c0 .161.131.292.292.292h2.353c.16 0 .292-.131.292-.292v-3.843a.292.292 0 0 0-.292-.292z"/></g></g><defs><clipPath id="a"><path fill="#fff" d="M0 0h16v16H0z" transform="translate(.727)"/></clipPath><clipPath id="b"><path fill="#fff" d="M0 0h14.49v13.74H0z" transform="translate(1.616 .89)"/></clipPath></defs></symbol><symbol id="medical-health" viewBox="0 0 17 16"><path fill="#fff" d="M5.686 9.284C7.495 9.284 8.96 7.68 8.96 5.7c0-1.979-1.466-3.583-3.275-3.583S2.41 3.72 2.41 5.7c0 1.98 1.466 3.584 3.275 3.584z"/><path fill="#fff" d="M11.769 9.284c1.809 0 3.275-1.604 3.275-3.584 0-1.979-1.466-3.583-3.275-3.583-1.81 0-3.276 1.604-3.276 3.583 0 1.98 1.467 3.584 3.276 3.584z"/><path fill="#fff" d="M8.727 15.07s-6.97-4.316-6.267-9.993h12.534c.703 5.677-6.267 9.992-6.267 9.992z"/><path stroke="#A6A6A6" stroke-linecap="round" stroke-linejoin="round" stroke-width=".67" d="M1.36 6.822h2.766l.872 2.075 1.075-4.724.691 6.958 1.351-5.309.681 1h4.592"/></symbol><symbol id="online" viewBox="0 0 16 17"><g clip-path="url(#a)"><path fill="#A7A7A7" d="M10.351 2.215H3.514c-.645 0-1.168.524-1.168 1.169v11.63c0 .646.523 1.169 1.168 1.169h6.837a1.17 1.17 0 0 0 1.169-1.169V3.384a1.17 1.17 0 0 0-1.169-1.169z"/><path fill="#F3F3F3" d="M10.351 2.7c.377 0 .684.307.684.684v11.63a.684.684 0 0 1-.684.684H3.514a.685.685 0 0 1-.684-.684V3.384c0-.377.307-.684.684-.684h6.837zm0-.97H3.514c-.913 0-1.653.74-1.653 1.654v11.63c0 .913.74 1.654 1.653 1.654h6.837c.913 0 1.654-.74 1.654-1.654V3.384c0-.913-.74-1.654-1.654-1.654z"/><path fill="#fff" d="M12.658 14.139a4.41 4.41 0 1 0 0-8.82 4.41 4.41 0 0 0 0 8.82z"/><path stroke="#fff" stroke-linecap="round" stroke-linejoin="round" stroke-width=".68" d="M12.662 8.48l-.893 2.619-.892-2.62m3.569.001l-.892 2.619-.892-2.62M10.569 9.79h.726m2.788 0h.726"/><path fill="#E9E9E9" d="M8.113 3.035h-2.36a.379.379 0 1 0 0 .758h2.36a.379.379 0 0 0 0-.758z"/><path fill="#fff" d="M8.113 3.035h-2.36a.38.38 0 0 0-.38.38c0 .208.17.378.38.378h2.36a.38.38 0 0 0 .38-.379.38.38 0 0 0-.38-.379z"/></g><defs><clipPath id="a"><path fill="#fff" d="M0 0h16v16H0z" transform="translate(0 .5)"/></clipPath></defs></symbol><symbol id="pet" viewBox="0 0 17 16"><path stroke="#E9E9E9" stroke-linecap="round" stroke-miterlimit="10" stroke-width="1.07" d="M2.297 8.734c0 1.807 1.44 3.271 3.215 3.271 1.776 0 3.215-1.464 3.215-3.27m0-.001c0 1.807 1.44 3.271 3.215 3.271 1.776 0 3.216-1.464 3.216-3.27"/><path stroke="#E9E9E9" stroke-miterlimit="10" stroke-width="1.07" d="M8.727 9.323V5.494"/><path fill="#fff" d="M8.16 7.857L4.92 6.13c-1.291-.689-.86-2.891.568-2.891h6.479c1.427 0 1.859 2.202.567 2.89l-3.24 1.728a1.194 1.194 0 0 1-1.134 0z"/></symbol><symbol id="parenting" viewBox="0 0 17 16"><g clip-path="url(#a)"><path fill="#E9E9E9" d="M14.337 10.716a2.686 2.686 0 1 0 0-5.373 2.686 2.686 0 0 0 0 5.373zm-11.219 0a2.687 2.687 0 1 0 0-5.373 2.687 2.687 0 0 0 0 5.373z"/><path fill="#E9E9E9" d="M8.787 14.441a6.412 6.412 0 1 0 0-12.823 6.412 6.412 0 0 0 0 12.823z"/><path fill="#F3F3F3" d="M11.23 11.227c-.293 1.044-1.47 1.639-2.477 1.642-1 .003-2.227-.575-2.504-1.656-.131-.512-.125-1.427.573-1.92.55-.39 1.333-.38 1.958.037.721-.403 1.563-.328 2.072.149.675.632.41 1.64.378 1.748z"/><path fill="#A7A7A7" d="M6.39 8.448a.675.675 0 1 0 0-1.35.675.675 0 0 0 0 1.35zm4.55 0a.675.675 0 1 0 0-1.35.675.675 0 0 0 0 1.35z"/><path stroke="#E9E9E9" stroke-linecap="round" stroke-miterlimit="10" stroke-width=".75" d="M6.47.367c-.907.13-1.626.772-1.798 1.586-.216 1.02.54 1.785.64 1.884.645.631 1.461.62 1.794.617.752-.008 1.838-.313 1.917-.864.048-.337-.28-.792-.656-.811-.33-.016-.663.307-.7.618-.066.574.848 1.354 1.728 1.258.056-.006.81-.101 1.072-.715.235-.554-.027-1.308-.704-1.73"/><path stroke="#A6A6A6" stroke-miterlimit="10" stroke-width=".47" d="M8.745 13.528a1.19 1.19 0 1 0 0-2.38 1.19 1.19 0 0 0 0 2.38z"/><path fill="#A7A7A7" d="M8.787 12.516a1.338 1.338 0 1 0 0-2.677 1.338 1.338 0 0 0 0 2.677z"/></g><defs><clipPath id="a"><path fill="#fff" d="M0 0h16v16H0z" transform="translate(.727)"/></clipPath></defs></symbol><symbol id="salary" viewBox="0 0 17 16"><g clip-path="url(#a)"><path fill="#fff" d="M8.727 15.688a7.688 7.688 0 1 0 0-15.376 7.688 7.688 0 0 0 0 15.376z"/><path stroke="#A6A6A6" stroke-linecap="round" stroke-linejoin="round" stroke-width=".99" d="M8.734 5.822l-1.556 4.567-1.555-4.567m6.221 0l-1.555 4.567-1.555-4.567M5.085 8.105h1.266m4.86 0h1.266"/></g><defs><clipPath id="a"><path fill="#fff" d="M0 0h16v16H0z" transform="translate(.727)"/></clipPath></defs></symbol><symbol id="residential" viewBox="0 0 17 16"><path fill="#F3F3F3" d="M12.768 8.493h1.911a.192.192 0 0 0 .192-.192V2.537a.192.192 0 0 0-.192-.192h-1.91a.192.192 0 0 0-.193.192v5.764c0 .106.086.192.192.192z"/><path fill="#E9E9E9" d="M8.727 2.345L2.583 8h12.288L8.727 2.345zM3.028 14.148h11.4a.444.444 0 0 0 .443-.445V8.445A.444.444 0 0 0 14.427 8h-11.4a.444.444 0 0 0-.444.444v5.259c0 .245.2.445.445.445z"/><path fill="#fff" d="M14.54 8.628L9.029 3.555a.444.444 0 0 0-.602 0L2.914 8.628a.444.444 0 0 1-.628-.026l-.602-.654a.444.444 0 0 1 .026-.628l6.716-6.181a.444.444 0 0 1 .602 0l6.716 6.181a.444.444 0 0 1 .027.628l-.603.654a.444.444 0 0 1-.627.026z"/><path fill="#A7A7A7" d="M10.552 14.148h-3.65V9.585a.84.84 0 0 1 .84-.84h1.97a.84.84 0 0 1 .84.84v4.562z"/></symbol><symbol id="transportation" viewBox="0 0 17 16"><path fill="#F3F3F3" d="M4.994 9.736h8.424a.63.63 0 0 0 .63-.63v-7.77a.63.63 0 0 0-.63-.63H4.994a.63.63 0 0 0-.63.63v7.77c0 .348.282.63.63.63z"/><path fill="#fff" d="M15.008 15.597h-2.27a.293.293 0 0 1-.293-.292v-3.989H15.3v3.989a.293.293 0 0 1-.293.292zm-9.333 0H3.404a.293.293 0 0 1-.293-.292v-3.989h2.856v3.989a.293.293 0 0 1-.292.292z"/><path fill="#E9E9E9" d="M3.76 13.48h10.892c.45 0 .814-.364.814-.814V2.619a.815.815 0 0 0-.814-.815H3.76a.815.815 0 0 0-.815.815v10.047c0 .45.365.814.815.814z"/><path fill="#A7A7A7" d="M4.503 10.971v.515c0 .316.256.572.572.572h1.007a.572.572 0 0 0 .572-.572v-.515a.572.572 0 0 0-.572-.572H5.075a.572.572 0 0 0-.572.572zm7.393 0v.515c0 .316.256.572.572.572h1.007a.572.572 0 0 0 .573-.572v-.515a.572.572 0 0 0-.573-.572H12.47a.572.572 0 0 0-.573.572zm-7.087-2.2h8.794a.444.444 0 0 0 .445-.444V3.68a.444.444 0 0 0-.445-.445H4.81a.444.444 0 0 0-.445.445v4.646c0 .245.2.444.445.444z"/></symbol><symbol id="events" viewBox="0 0 17 17"><path fill="#E9E9E9" d="M2.934 14.854h11.984a.837.837 0 0 0 .837-.837V4.381a.837.837 0 0 0-.837-.838H2.934a.837.837 0 0 0-.837.838v9.636c0 .463.375.838.837.838z"/><path fill="#F3F3F3" d="M9.307 8.867l6.136 4.9a.61.61 0 0 1-.38 1.088H2.79a.61.61 0 0 1-.381-1.087l6.136-4.901a.61.61 0 0 1 .762 0z" opacity=".6"/><path fill="#fff" d="M9.493 10.73l6.039-5.81c.53-.51.169-1.406-.567-1.406H2.887c-.735 0-1.096.897-.566 1.407l6.039 5.81a.817.817 0 0 0 1.133 0z"/></symbol><symbol id="pin-money" viewBox="0 0 17 16"><path fill="#F3F3F3" d="M11.73 2.868L6.295.787a.455.455 0 0 0-.588.262L3.512 6.783a.455.455 0 0 0 .262.588l5.434 2.081a.455.455 0 0 0 .588-.262l2.196-5.734a.455.455 0 0 0-.263-.588z"/><path fill="#fff" d="M12.848 4.33L7.615 2.326a.403.403 0 0 0-.521.232L5.32 7.191a.403.403 0 0 0 .232.52l5.233 2.005a.403.403 0 0 0 .521-.233l1.774-4.632a.403.403 0 0 0-.232-.521z"/><path fill="#E9E9E9" d="M3.582 5.879h10.046c.217 0 .394.177.394.394v8.576a.394.394 0 0 1-.394.395H3.582a.789.789 0 0 1-.788-.789V6.667c0-.435.353-.788.788-.788z"/><path fill="#F3F3F3" d="M13.712 8.617H9.676a.949.949 0 0 0-.949.949v1.49a.95.95 0 0 0 .95.949h4.035a.949.949 0 0 0 .95-.95v-1.49a.949.949 0 0 0-.95-.948z"/><path fill="#A7A7A7" d="M10.207 11.05a.74.74 0 1 0 0-1.48.74.74 0 0 0 0 1.48z"/></symbol><symbol id="loan-interest" viewBox="0 0 17 16"><g clip-path="url(#a)"><path fill="#E9E9E9" d="M8.727 15.111a7.111 7.111 0 1 0 0-14.222 7.111 7.111 0 0 0 0 14.222z"/><path fill="#fff" d="M13.999 16.42a3.035 3.035 0 1 0 0-6.072 3.035 3.035 0 0 0 0 6.071z"/><path stroke="#A6A6A6" stroke-linecap="round" stroke-linejoin="round" stroke-width=".53" d="M13.999 11.493v2.191l1.164 1.165"/><path stroke="#A6A6A6" stroke-linecap="round" stroke-linejoin="round" stroke-width=".89" d="M6.863 7.164a1.028 1.028 0 1 0 0-2.056 1.028 1.028 0 0 0 0 2.056zm3.728 3.728a1.028 1.028 0 1 0 0-2.055 1.028 1.028 0 0 0 0 2.055zm.701-5.655l-5.328 5.328"/></g><defs><clipPath id="a"><path fill="#fff" d="M0 0h16v16H0z" transform="translate(.727)"/></clipPath></defs></symbol><symbol id="movie" viewBox="0 0 16 17"><g clip-path="url(#a)"><path fill="#E9E9E9" d="M11.41 4.2a1.031 1.031 0 0 1 .091-1.456L9.931.964A.405.405 0 0 0 9.36.926l-8.28 7.3a.405.405 0 0 0-.036.572l1.57 1.78a1.031 1.031 0 0 1 1.364 1.547l1.57 1.78a.405.405 0 0 0 .571.037l8.28-7.298a.405.405 0 0 0 .035-.572l-1.57-1.781a1.031 1.031 0 0 1-1.455-.092z" opacity=".6"/><path fill="#E9E9E9" d="M11.93 6.33a1.031 1.031 0 0 1 .092-1.455l-1.57-1.781a.405.405 0 0 0-.572-.036l-8.278 7.298a.405.405 0 0 0-.036.572l1.57 1.78a1.031 1.031 0 0 1 1.363 1.548l1.57 1.78a.405.405 0 0 0 .572.037l8.279-7.299a.405.405 0 0 0 .036-.572l-1.57-1.78a1.031 1.031 0 0 1-1.455-.092z"/><path fill="#fff" d="M9.88 3.058L7.024 5.576l5.04 5.716 2.856-2.518a.405.405 0 0 0 .036-.572l-1.57-1.78a1.031 1.031 0 0 1-1.364-1.547l-1.57-1.781a.405.405 0 0 0-.572-.036z"/><path fill="#A7A7A7" d="M6.84 8.09l-2.398 2.116a.354.354 0 0 0-.032.5l2.344 2.658c.13.147.353.161.5.032l2.4-2.115a.354.354 0 0 0 .03-.5L7.342 8.12a.354.354 0 0 0-.5-.03zm2.548-2.256a.609.609 0 0 0-.054.86l2.008 2.276a.609.609 0 1 0 .913-.805l-2.008-2.277a.609.609 0 0 0-.859-.054z"/></g><defs><clipPath id="a"><path fill="#fff" d="M0 0h16v16H0z" transform="translate(0 .5)"/></clipPath></defs></symbol><symbol id="loan-repayment" viewBox="0 0 17 16"><path fill="#E9E9E9" d="M15.178 13.119c.01-.06.022-.118.022-.178s-.012-.119-.021-.178V3.665H2.253v9.454h.022c.221 1.403 3.02 2.513 6.451 2.513 3.43 0 6.23-1.11 6.451-2.513z"/><mask id="a" width="14" height="13" x="2" y="3" maskUnits="userSpaceOnUse" style="mask-type:luminance"><path fill="#fff" d="M15.178 13.119c.01-.06.022-.118.022-.178s-.012-.119-.021-.178V3.665H2.253v9.454h.022c.221 1.403 3.02 2.513 6.451 2.513 3.43 0 6.23-1.11 6.451-2.513z"/></mask><g stroke="#A6A6A6" stroke-linecap="round" stroke-miterlimit="10" stroke-width=".71" mask="url(#a)"><path d="M15.647 5.318c0 1.682-3.098 3.045-6.92 3.045-3.821 0-6.92-1.363-6.92-3.045"/><path d="M15.647 7.91c0 1.681-3.098 3.044-6.92 3.044-3.821 0-6.92-1.363-6.92-3.045"/><path d="M15.647 10.394c0 1.681-3.098 3.045-6.92 3.045-3.821 0-6.92-1.364-6.92-3.045"/></g><path fill="#fff" d="M8.727 6.356c3.575 0 6.473-1.205 6.473-2.692 0-1.486-2.898-2.69-6.473-2.69-3.575 0-6.473 1.204-6.473 2.69 0 1.487 2.898 2.692 6.473 2.692z"/><path stroke="#fff" stroke-linecap="round" stroke-linejoin="round" stroke-width=".62" d="M9.596 2.52l-3.58 1.9 1.058-2.177m5.043.553l-3.58 1.901L9.596 2.52m-4.117.696l1.025.112m3.94.432l1.49.112"/></symbol><symbol id="automobile" viewBox="0 0 17 16"><g clip-path="url(#a)"><path fill="#A7A7A7" d="M4.98 2.39h8.89v5.33H4.98z"/><path fill="#fff" d="M15.008 15.005h-2.27a.292.292 0 0 1-.293-.293v-3.988H15.3v3.988a.292.292 0 0 1-.293.293zm-9.333 0H3.404a.293.293 0 0 1-.293-.293v-3.988h2.856v3.988a.292.292 0 0 1-.292.293z"/><path fill="#E9E9E9" d="M15.244 7.242H3.168a.889.889 0 0 0-.889.889v3.844c0 .491.398.89.889.89h12.076a.89.89 0 0 0 .889-.89V8.131a.889.889 0 0 0-.889-.89z"/><path fill="#E9E9E9" d="M14.429 2.406a.887.887 0 0 0-.882-.786H4.865a.887.887 0 0 0-.882.786l-.555 4.836h1.419l.418-3.605a.667.667 0 0 1 .666-.586h6.55c.34 0 .627.253.666.586l.418 3.605h1.419l-.555-4.836z"/><path fill="#A7A7A7" d="M3.463 9.956v.515c0 .316.257.572.573.572h1.007a.572.572 0 0 0 .572-.572v-.515a.572.572 0 0 0-.572-.572H4.036a.572.572 0 0 0-.573.572zm9.334 0v.515c0 .316.256.572.572.572h1.007a.572.572 0 0 0 .573-.572v-.515a.572.572 0 0 0-.573-.572H13.37a.572.572 0 0 0-.573.572z"/><path fill="#F3F3F3" d="M6.946 10.214c0 .458.371.83.83.83h2.86a.83.83 0 0 0 0-1.66h-2.86a.83.83 0 0 0-.83.83z"/></g><defs><clipPath id="a"><path fill="#fff" d="M0 0h16v16H0z" transform="translate(.894)"/></clipPath></defs></symbol><symbol id="alcohol" viewBox="0 0 17 16"><path fill="#fff" d="M13.659 6.164h-2.34a.793.793 0 0 0-.794.793v6.309c0 .438.355.793.793.793h2.34a.793.793 0 0 0 .793-.793v-6.31a.793.793 0 0 0-.793-.792z"/><path fill="#fff" d="M12.875 7.661h-1.348a.257.257 0 0 0-.257.257v4.386c0 .142.115.257.257.257h1.348a.257.257 0 0 0 .257-.257V7.918a.257.257 0 0 0-.257-.257z"/><path fill="#fff" d="M11.936 3.635H4.31a.444.444 0 0 0-.444.445v10.852c0 .245.199.444.444.444h7.627a.444.444 0 0 0 .445-.444V4.08a.444.444 0 0 0-.445-.445z"/><path stroke="#A6A6A6" stroke-linecap="round" stroke-linejoin="round" stroke-width=".99" d="M6.624 7.26v5.702M9.622 7.26v5.702"/><mask id="a" fill="#fff"><path fill-rule="evenodd" d="M3.877 2.511a1.793 1.793 0 0 1 3.31-.955 1.22 1.22 0 0 1 1.98.956h3.226V4.76H6.95v3.916c0 .527-.299.954-.666.954h-.446c-.368 0-.666-.427-.666-.954V4.76H3.877V2.51z" clip-rule="evenodd"/></mask><path fill="#E9E9E9" fill-rule="evenodd" d="M3.877 2.511a1.793 1.793 0 0 1 3.31-.955 1.22 1.22 0 0 1 1.98.956h3.226V4.76H6.95v3.916c0 .527-.299.954-.666.954h-.446c-.368 0-.666-.427-.666-.954V4.76H3.877V2.51z" clip-rule="evenodd"/><path fill="#F3F3F3" d="M7.186 1.556l-.25.158.176.28.259-.207-.185-.231zm1.98.955h-.295v.297h.296V2.51zm3.227 0h.296v-.296h-.296v.296zm0 2.249v.296h.296V4.76h-.296zm-5.443 0v-.297h-.297v.297h.297zm-1.778 0h.296v-.297h-.296v.297zm-1.295 0H3.58v.296h.296V4.76zM3.58 2.51h.592-.592zM5.669.422a2.089 2.089 0 0 0-2.088 2.09h.592c0-.827.67-1.497 1.496-1.497V.422zm1.768.975A2.088 2.088 0 0 0 5.669.422v.593c.533 0 1.001.278 1.267.699l.5-.317zm.509-.403c-.357 0-.685.124-.944.33l.369.463a.92.92 0 0 1 .575-.2V.994zm1.517 1.517c0-.838-.68-1.517-1.517-1.517v.593c.51 0 .925.414.925.924h.592zm0 0h-.592.592zm2.93-.296H9.167v.593h3.226v-.593zm.296 2.545V2.51h-.593v2.25h.593zm-5.74.296h5.444v-.593H6.95v.593zm.297 3.62V4.76h-.593v3.916h.593zm-.962 1.25c.307 0 .555-.179.713-.406.16-.228.249-.527.249-.844h-.593a.9.9 0 0 1-.141.505c-.083.118-.168.152-.228.152v.593zm-.446 0h.446v-.593h-.446v.593zm-.963-1.25c0 .317.09.616.249.844.158.227.406.406.714.406v-.593c-.06 0-.146-.034-.228-.152a.893.893 0 0 1-.142-.505h-.593zm0-3.916v3.916h.593V4.76h-.593zm-.998.296h1.295v-.593H3.877v.593zM3.58 2.511V4.76h.592V2.51H3.58z" mask="url(#a)"/></symbol><symbol id="subscribe" viewBox="0 0 17 17"><g clip-path="url(#a)"><path fill="#fff" d="M4.16 5.783a.714.714 0 0 1-.713-.714V1.832c0-.292.237-.529.528-.529h.372c.291 0 .528.237.528.529v3.237c0 .394-.32.714-.714.714zm7.513.077a.714.714 0 0 1-.714-.714V1.91c0-.291.237-.528.528-.528h.372c.291 0 .528.237.528.528v3.237c0 .395-.32.715-.714.715z"/><path fill="#E9E9E9" d="M2.616 15.49h10.602c.45 0 .816-.366.816-.817V4.302a.816.816 0 0 0-.816-.817H2.616a.816.816 0 0 0-.816.817v10.37c0 .452.365.817.816.817z"/><path stroke="#A6A6A6" stroke-linecap="round" stroke-linejoin="round" stroke-width=".68" d="M7.974 9.143l-1.17 3.437-1.17-3.437m4.681 0l-1.17 3.437-1.17-3.437m-2.746 1.719h.952m3.658 0h.952"/><path fill="#fff" d="M13.304 3.485H2.53c-.403 0-.73.372-.73.831V6.63h12.234V4.316c0-.459-.327-.83-.73-.83zm.73 13.61a3.311 3.311 0 1 0 0-6.623 3.311 3.311 0 0 0 0 6.623z"/><path stroke="#fff" stroke-linecap="round" stroke-linejoin="round" stroke-width=".58" d="M14.034 11.72v2.39l1.27 1.271"/></g><defs><clipPath id="a"><path fill="#fff" d="M0 0h16v16H0z" transform="translate(.227 .5)"/></clipPath></defs></symbol><symbol id="travel" viewBox="0 0 16 17"><g clip-path="url(#a)"><path stroke="#E9E9E9" stroke-linecap="round" stroke-linejoin="round" stroke-width="1.08" d="M12.586 2.613H4.79v5.121h7.796V2.613z"/><path fill="#fff" d="M4.054 17.908a.928.928 0 0 1-.927-.927v-2.866c0-.38.308-.687.686-.687h.482c.379 0 .686.308.686.687v2.866a.928.928 0 0 1-.927.927zm9.264 0a.928.928 0 0 1-.927-.927v-2.866c0-.38.307-.687.686-.687h.482c.379 0 .686.308.686.687v2.866a.928.928 0 0 1-.927.927z"/><path fill="#E9E9E9" d="M2.686 16.365h12.026c.45 0 .816-.365.816-.815V6.446a.816.816 0 0 0-.816-.816H2.686a.816.816 0 0 0-.816.816v9.104c0 .45.365.815.816.815z"/><path stroke="#A6A6A6" stroke-linecap="round" stroke-linejoin="round" stroke-width="1.08" d="M6.628 8.85v4.294M10.77 8.85v4.294"/><path fill="#fff" d="M12.602 1.765H4.796c-.344 0-.622.259-.622.579v.135c0 .32.278.579.622.579h7.806c.344 0 .622-.26.622-.58v-.134c0-.32-.278-.58-.622-.58z"/></g><defs><clipPath id="a"><path fill="#fff" d="M0 0h16v16H0z" transform="translate(0 .5)"/></clipPath></defs></symbol><symbol id="beauty" viewBox="0 0 16 17"><g clip-path="url(#a)"><path fill="#E9E9E9" d="M2.013 17.193h6.785c.235 0 .426-.19.426-.426v-10.3a.425.425 0 0 0-.426-.426H2.013a.425.425 0 0 0-.425.426v10.3c0 .235.19.426.425.426z"/><path fill="#fff" d="M6.138 2.44H4.676v3.601h1.462v-3.6z"/><path fill="#fff" d="M8.257 1.523v.169a.977.977 0 0 1-.976.976H4.336a.318.318 0 0 1-.317-.318v-.827c0-.175.142-.318.317-.318H7.94c.175 0 .317.143.317.318z"/><path fill="#A7A7A7" d="M9.224 7.77H1.588v3.25h7.636V7.77z"/><path fill="#fff" d="M3.446 4.344h3.92c.15 0 .272.122.272.272V6.04H3.174V4.616c0-.15.122-.272.272-.272z"/><path fill="#E9E9E9" d="M10.698 10.261h4.48c.5 0 .907.407.907.907v1.355H9.79v-1.355c0-.5.406-.907.907-.907z"/><path fill="#fff" d="M15.632 17.193h-5.388a.454.454 0 0 1-.453-.454v-4.216h6.294v4.216c0 .25-.203.454-.453.454z"/></g><defs><clipPath id="a"><path fill="#fff" d="M0 0h16v16H0z" transform="translate(0 .5)"/></clipPath></defs></symbol><symbol id="fashion" viewBox="0 0 16 17"><path fill="#E9E9E9" d="M13.17 5.852H4.228c-.331 0-.606.18-.63.414l-.923 8.89c-.027.26.263.48.63.48h10.786c.367 0 .657-.22.63-.48l-.923-8.89c-.024-.234-.299-.414-.63-.414z"/><path stroke="#fff" stroke-linecap="round" stroke-miterlimit="10" stroke-width="1.16" d="M5.98 7.631l-.033-1.78c-.159-1.659 1.166-3.09 2.752-3.09 1.586 0 2.91 1.431 2.752 3.09v1.672"/></symbol><symbol id="cafe" viewBox="0 0 17 16"><path fill="#E9E9E9" d="M11.874 14.415H5.58c-.233 0-.426-.204-.443-.468L4.488 3.92c-.019-.292.185-.541.443-.541h7.592c.258 0 .462.249.443.541l-.649 10.026c-.017.264-.21.468-.443.468z"/><path fill="#A7A7A7" d="M8.727 11.465a2.425 2.425 0 1 0 0-4.851 2.425 2.425 0 0 0 0 4.85z"/><path fill="#fff" d="M13.264 2.901H4.19a.311.311 0 0 0-.311.312v1.17a.31.31 0 0 0 .311.312h9.075c.171 0 .311-.14.311-.311V3.213a.312.312 0 0 0-.312-.312z"/><path fill="#fff" d="M11.712 1.585h-5.97a.885.885 0 0 0-.885.886v.86c0 .49.397.886.885.886h5.97a.885.885 0 0 0 .885-.886v-.86a.885.885 0 0 0-.885-.886z"/></symbol><symbol id="corporate-income" viewBox="0 0 17 16"><g clip-path="url(#a)"><path fill="#E9E9E9" d="M3.297 1.482h6.805c.057 0 .104.046.104.103v.808H3.194v-.808c0-.057.046-.103.103-.103z"/><path fill="#E9E9E9" d="M2.794 2.082h7.811c.234 0 .423.19.423.423v12.013H2.371V2.505c0-.233.19-.423.423-.423z"/><path fill="#F3F3F3" d="M10.206 3.08H3.15v1.06h7.056V3.08zm0 1.655H3.15v1.06h7.056v-1.06zm0 1.647H3.15v1.06h7.056v-1.06zm0 1.647H3.15v1.06h7.056v-1.06zm0 1.646H3.15v1.06h7.056v-1.06zm0 1.647H3.15v1.06h7.056v-1.06z"/><path fill="#fff" d="M12.357 12.528a4.043 4.043 0 1 0 0-8.085 4.043 4.043 0 0 0 0 8.085z"/><path stroke="#A6A6A6" stroke-linecap="round" stroke-linejoin="round" stroke-width=".62" d="M12.36 7.34l-.818 2.402-.818-2.402m3.271 0l-.817 2.402-.818-2.402m-1.919 1.201h.666m2.556 0h.665"/></g><defs><clipPath id="a"><path fill="#fff" d="M0 0h16v16H0z" transform="translate(.727)"/></clipPath></defs></symbol></svg>